<?xml version="1.0" encoding="UTF-8" standalone="no"?>
<svg
   xmlns:dc="http://purl.org/dc/elements/1.1/"
   xmlns:cc="http://creativecommons.org/ns#"
   xmlns:rdf="http://www.w3.org/1999/02/22-rdf-syntax-ns#"
   xmlns:svg="http://www.w3.org/2000/svg"
   xmlns="http://www.w3.org/2000/svg"
   xmlns:xlink="http://www.w3.org/1999/xlink"
   xmlns:sodipodi="http://sodipodi.sourceforge.net/DTD/sodipodi-0.dtd"
   xmlns:inkscape="http://www.inkscape.org/namespaces/inkscape"
   viewBox="0 0 542.25 368.25"
   version="1.1"
   id="svg286"
   sodipodi:docname="jfaLogo.svg"
   inkscape:version="0.92.3 (2405546, 2018-03-11)">
  <metadata
     id="metadata290">
    <rdf:RDF>
      <cc:Work
         rdf:about="">
        <dc:format>image/svg+xml</dc:format>
        <dc:type
           rdf:resource="http://purl.org/dc/dcmitype/StillImage" />
        <dc:title></dc:title>
      </cc:Work>
    </rdf:RDF>
  </metadata>
  <sodipodi:namedview
     pagecolor="#ffffff"
     bordercolor="#666666"
     borderopacity="1"
     objecttolerance="10"
     gridtolerance="10"
     guidetolerance="10"
     inkscape:pageopacity="0"
     inkscape:pageshadow="2"
     inkscape:window-width="1920"
     inkscape:window-height="1001"
     id="namedview288"
     showgrid="false"
     inkscape:zoom="1.7469907"
     inkscape:cx="271.125"
     inkscape:cy="184.125"
     inkscape:window-x="-9"
     inkscape:window-y="-9"
     inkscape:window-maximized="1"
     inkscape:current-layer="svg286" />
  <defs
     id="defs4">
    <style
       type="text/css"
       id="style2"><![CDATA[
    line, polyline, polygon, path, rect, circle {
      fill: none;
      stroke: #000000;
      stroke-linecap: round;
      stroke-linejoin: round;
      stroke-miterlimit: 10.00;
    }
  ]]></style>
    <linearGradient
       inkscape:collect="always"
       xlink:href="#linearGradient1452"
       id="linearGradient1454"
       x1="97.686172"
       y1="125.71215"
       x2="185.46162"
       y2="180.8549"
       gradientUnits="userSpaceOnUse"
       gradientTransform="matrix(2.517797,0,0,2.313473,8.6775012,-151.81949)" />
    <linearGradient
       inkscape:collect="always"
       id="linearGradient1452">
      <stop
         style="stop-color:#233f87;stop-opacity:1;"
         offset="0"
         id="stop1448" />
      <stop
         style="stop-color:#233f87;stop-opacity:0;"
         offset="1"
         id="stop1450" />
    </linearGradient>
  </defs>
  <defs
     id="defs11">
    <clipPath
       id="cpMTExLjY4fDQzMC41N3wzNjguMjV8MC4wMA==">
      <rect
         x="111.68"
         y="0.00"
         width="318.90"
         height="368.25"
         id="rect8" />
    </clipPath>
  </defs>
  <rect
     x="111.68"
     y="0.00"
     width="318.90"
     height="368.25"
     style="stroke-width: 1.07; stroke: none;"
     clip-path="url(#cpMTExLjY4fDQzMC41N3wzNjguMjV8MC4wMA==)"
     id="rect13" />
  <defs
     id="defs18">
    <clipPath
       id="cpMC4wMHw1NDIuMjV8MzY4LjI1fDAuMDA=">
      <rect
         x="0.00"
         y="0.00"
         width="542.25"
         height="368.25"
         id="rect15" />
    </clipPath>
  </defs>
  <defs
     id="defs23">
    <clipPath
       id="cpMTExLjU0fDQzMC41N3wzNjguMjV8MC4wMA==">
      <rect
         x="111.54"
         y="0.00"
         width="319.04"
         height="368.25"
         id="rect20" />
    </clipPath>
  </defs>
  <rect
     x="111.54"
     y="0.00"
     width="319.04"
     height="368.39"
     style="stroke-width: 1.07; stroke: none;"
     clip-path="url(#cpMTExLjU0fDQzMC41N3wzNjguMjV8MC4wMA==)"
     id="rect25" />
  <polygon
     points="114.66,93.90 114.66,274.49 271.05,364.78 427.44,274.49 427.44,93.90 271.05,3.61 114.66,93.90 "
     style="stroke-width: 6.40; stroke: none; fill: #223F87;"
     clip-path="url(#cpMTExLjU0fDQzMC41N3wzNjguMjV8MC4wMA==)"
     id="polygon27" />
  <defs
     id="defs32">
    <clipPath
       id="cpMTk4LjgyfDI3MS4wNXwyNzQuNDl8MTg0LjIw">
      <rect
         x="198.82"
         y="184.20"
         width="72.23"
         height="90.29"
         id="rect29" />
    </clipPath>
  </defs>
  <rect
     x="198.82"
     y="184.20"
     width="72.23"
     height="90.29"
     style="stroke-width: 0.75; stroke: none;"
     clip-path="url(#cpMTk4LjgyfDI3MS4wNXwyNzQuNDl8MTg0LjIw)"
     id="rect34" />
  <defs
     id="defs40">
    <clipPath
       id="clipPath38">
      <rect
         x="111.54"
         y="0.00"
         width="319.04"
         height="368.25"
         id="rect36" />
    </clipPath>
  </defs>
  <defs
     id="defs46">
    <clipPath
       id="clipPath44">
      <rect
         x="198.82"
         y="184.20"
         width="72.23"
         height="90.29"
         id="rect42" />
    </clipPath>
  </defs>
  <rect
     x="198.82"
     y="184.20"
     width="72.23"
     height="90.29"
     style="stroke-width: 0.75; stroke: none;"
     clip-path="url(#cpMTk4LjgyfDI3MS4wNXwyNzQuNDl8MTg0LjIw)"
     id="rect48" />
  <defs
     id="defs54">
    <clipPath
       id="clipPath52">
      <rect
         x="111.54"
         y="0.00"
         width="319.04"
         height="368.25"
         id="rect50" />
    </clipPath>
  </defs>
  <defs
     id="defs60">
    <clipPath
       id="clipPath58">
      <rect
         x="0.00"
         y="0.00"
         width="542.25"
         height="368.25"
         id="rect56" />
    </clipPath>
  </defs>
  <defs
     id="defs66">
    <clipPath
       id="clipPath64">
      <rect
         x="111.54"
         y="0.00"
         width="319.04"
         height="368.25"
         id="rect62" />
    </clipPath>
  </defs>
  <defs
     id="defs72">
    <clipPath
       id="clipPath70">
      <rect
         x="0.00"
         y="0.00"
         width="542.25"
         height="368.25"
         id="rect68" />
    </clipPath>
  </defs>
  <defs
     id="defs78">
    <clipPath
       id="clipPath76">
      <rect
         x="111.54"
         y="0.00"
         width="319.04"
         height="368.25"
         id="rect74" />
    </clipPath>
  </defs>
  <defs
     id="defs84">
    <clipPath
       id="clipPath82">
      <rect
         x="0.00"
         y="0.00"
         width="542.25"
         height="368.25"
         id="rect80" />
    </clipPath>
  </defs>
  <defs
     id="defs90">
    <clipPath
       id="clipPath88">
      <rect
         x="111.54"
         y="0.00"
         width="319.04"
         height="368.25"
         id="rect86" />
    </clipPath>
  </defs>
  <defs
     id="defs96">
    <clipPath
       id="clipPath94">
      <rect
         x="0.00"
         y="0.00"
         width="542.25"
         height="368.25"
         id="rect92" />
    </clipPath>
  </defs>
  <defs
     id="defs102">
    <clipPath
       id="clipPath100">
      <rect
         x="111.54"
         y="0.00"
         width="319.04"
         height="368.25"
         id="rect98" />
    </clipPath>
  </defs>
  <defs
     id="defs108">
    <clipPath
       id="clipPath106">
      <rect
         x="0.00"
         y="0.00"
         width="542.25"
         height="368.25"
         id="rect104" />
    </clipPath>
  </defs>
  <defs
     id="defs114">
    <clipPath
       id="clipPath112">
      <rect
         x="111.54"
         y="0.00"
         width="319.04"
         height="368.25"
         id="rect110" />
    </clipPath>
  </defs>
  <defs
     id="defs120">
    <clipPath
       id="clipPath118">
      <rect
         x="0.00"
         y="0.00"
         width="542.25"
         height="368.25"
         id="rect116" />
    </clipPath>
  </defs>
  <defs
     id="defs126">
    <clipPath
       id="clipPath124">
      <rect
         x="111.54"
         y="0.00"
         width="319.04"
         height="368.25"
         id="rect122" />
    </clipPath>
  </defs>
  <defs
     id="defs132">
    <clipPath
       id="clipPath130">
      <rect
         x="0.00"
         y="0.00"
         width="542.25"
         height="368.25"
         id="rect128" />
    </clipPath>
  </defs>
  <defs
     id="defs138">
    <clipPath
       id="clipPath136">
      <rect
         x="111.54"
         y="0.00"
         width="319.04"
         height="368.25"
         id="rect134" />
    </clipPath>
  </defs>
  <defs
     id="defs144">
    <clipPath
       id="clipPath142">
      <rect
         x="0.00"
         y="0.00"
         width="542.25"
         height="368.25"
         id="rect140" />
    </clipPath>
  </defs>
  <defs
     id="defs150">
    <clipPath
       id="clipPath148">
      <rect
         x="111.54"
         y="0.00"
         width="319.04"
         height="368.25"
         id="rect146" />
    </clipPath>
  </defs>
  <defs
     id="defs156">
    <clipPath
       id="clipPath154">
      <rect
         x="0.00"
         y="0.00"
         width="542.25"
         height="368.25"
         id="rect152" />
    </clipPath>
  </defs>
  <defs
     id="defs162">
    <clipPath
       id="clipPath160">
      <rect
         x="111.54"
         y="0.00"
         width="319.04"
         height="368.25"
         id="rect158" />
    </clipPath>
  </defs>
  <defs
     id="defs168">
    <clipPath
       id="clipPath166">
      <rect
         x="0.00"
         y="0.00"
         width="542.25"
         height="368.25"
         id="rect164" />
    </clipPath>
  </defs>
  <defs
     id="defs174">
    <clipPath
       id="clipPath172">
      <rect
         x="111.54"
         y="0.00"
         width="319.04"
         height="368.25"
         id="rect170" />
    </clipPath>
  </defs>
  <defs
     id="defs180">
    <clipPath
       id="clipPath178">
      <rect
         x="0.00"
         y="0.00"
         width="542.25"
         height="368.25"
         id="rect176" />
    </clipPath>
  </defs>
  <defs
     id="defs186">
    <clipPath
       id="clipPath184">
      <rect
         x="111.54"
         y="0.00"
         width="319.04"
         height="368.25"
         id="rect182" />
    </clipPath>
  </defs>
  <defs
     id="defs192">
    <clipPath
       id="clipPath190">
      <rect
         x="0.00"
         y="0.00"
         width="542.25"
         height="368.25"
         id="rect188" />
    </clipPath>
  </defs>
  <defs
     id="defs198">
    <clipPath
       id="clipPath196">
      <rect
         x="111.54"
         y="0.00"
         width="319.04"
         height="368.25"
         id="rect194" />
    </clipPath>
  </defs>
  <defs
     id="defs204">
    <clipPath
       id="clipPath202">
      <rect
         x="0.00"
         y="0.00"
         width="542.25"
         height="368.25"
         id="rect200" />
    </clipPath>
  </defs>
  <defs
     id="defs210">
    <clipPath
       id="clipPath208">
      <rect
         x="111.54"
         y="0.00"
         width="319.04"
         height="368.25"
         id="rect206" />
    </clipPath>
  </defs>
  <defs
     id="defs216">
    <clipPath
       id="clipPath214">
      <rect
         x="0.00"
         y="0.00"
         width="542.25"
         height="368.25"
         id="rect212" />
    </clipPath>
  </defs>
  <defs
     id="defs222">
    <clipPath
       id="clipPath220">
      <rect
         x="111.54"
         y="0.00"
         width="319.04"
         height="368.25"
         id="rect218" />
    </clipPath>
  </defs>
  <defs
     id="defs228">
    <clipPath
       id="clipPath226">
      <rect
         x="0.00"
         y="0.00"
         width="542.25"
         height="368.25"
         id="rect224" />
    </clipPath>
  </defs>
  <defs
     id="defs234">
    <clipPath
       id="clipPath232">
      <rect
         x="111.54"
         y="0.00"
         width="319.04"
         height="368.25"
         id="rect230" />
    </clipPath>
  </defs>
  <defs
     id="defs240">
    <clipPath
       id="clipPath238">
      <rect
         x="0.00"
         y="0.00"
         width="542.25"
         height="368.25"
         id="rect236" />
    </clipPath>
  </defs>
  <defs
     id="defs246">
    <clipPath
       id="clipPath244">
      <rect
         x="111.54"
         y="0.00"
         width="319.04"
         height="368.25"
         id="rect242" />
    </clipPath>
  </defs>
  <polyline
     points="114.66,93.90 114.66,274.49 271.05,364.78 427.44,274.49 427.44,93.90 271.05,3.61 114.66,93.90 114.66,93.90 "
     style="stroke-width: 6.40; stroke: #152C52;"
     clip-path="url(#cpMTExLjU0fDQzMC41N3wzNjguMjV8MC4wMA==)"
     id="polyline248" />
  <path
     d="M 237.23 269.26 L 232.61 269.26 L 232.61 269.26 L 232.58 269.14 L 232.55 269.03 L 232.53 268.90 L 232.51 268.78 L 232.48 268.65 L 232.46 268.52 L 232.44 268.39 L 232.43 268.26 L 232.41 268.12 L 232.39 267.98 L 232.39 267.98 L 232.38 267.82 L 232.37 267.67 L 232.36 267.52 L 232.35 267.36 L 232.34 267.21 L 232.33 267.06 L 232.33 266.92 L 232.33 266.77 L 232.32 266.63 L 232.32 266.48 L 232.32 266.48 L 232.32 266.34 L 232.33 266.20 L 232.33 266.06 L 232.33 265.92 L 232.34 265.77 L 232.35 265.63 L 232.36 265.49 L 232.37 265.35 L 232.38 265.20 L 232.39 265.06 L 232.39 265.06 L 232.41 264.91 L 232.43 264.76 L 232.44 264.61 L 232.46 264.47 L 232.48 264.33 L 232.51 264.20 L 232.53 264.07 L 232.55 263.95 L 232.58 263.83 L 232.61 263.71 L 244.13 263.71 L 244.13 302.26 L 244.13 302.26 L 244.12 302.89 L 244.10 303.50 L 244.05 304.09 L 243.99 304.65 L 243.92 305.20 L 243.82 305.72 L 243.71 306.22 L 243.59 306.70 L 243.44 307.16 L 243.28 307.60 L 243.28 307.60 L 243.10 308.02 L 242.91 308.42 L 242.70 308.80 L 242.48 309.17 L 242.25 309.52 L 242.00 309.85 L 241.73 310.17 L 241.46 310.47 L 241.17 310.75 L 240.86 311.01 L 240.86 311.01 L 240.55 311.28 L 240.24 311.52 L 239.91 311.75 L 239.57 311.97 L 239.22 312.17 L 238.86 312.35 L 238.49 312.52 L 238.11 312.67 L 237.71 312.81 L 237.30 312.93 L 237.30 312.93 L 236.89 313.04 L 236.46 313.14 L 236.03 313.22 L 235.60 313.30 L 235.15 313.36 L 234.70 313.41 L 234.24 313.45 L 233.77 313.48 L 233.30 313.50 L 232.82 313.50 L 232.82 313.50 L 232.07 313.49 L 231.33 313.47 L 230.63 313.42 L 229.94 313.35 L 229.28 313.27 L 228.65 313.17 L 228.04 313.05 L 227.45 312.91 L 226.89 312.75 L 226.35 312.58 L 226.35 312.58 L 226.36 312.31 L 226.39 312.03 L 226.41 311.76 L 226.44 311.49 L 226.47 311.21 L 226.51 310.93 L 226.55 310.65 L 226.60 310.37 L 226.65 310.09 L 226.70 309.80 L 226.70 309.80 L 226.76 309.52 L 226.83 309.25 L 226.89 308.98 L 226.97 308.71 L 227.04 308.45 L 227.12 308.20 L 227.21 307.95 L 227.30 307.71 L 227.39 307.47 L 227.49 307.24 L 227.49 307.24 L 227.83 307.35 L 228.19 307.45 L 228.56 307.53 L 228.94 307.61 L 229.34 307.67 L 229.74 307.72 L 230.16 307.76 L 230.58 307.79 L 231.02 307.81 L 231.47 307.81 L 231.47 307.81 L 231.66 307.81 L 231.84 307.81 L 232.03 307.80 L 232.22 307.79 L 232.41 307.78 L 232.61 307.76 L 232.80 307.74 L 233.00 307.72 L 233.19 307.70 L 233.39 307.67 L 233.39 307.67 L 233.59 307.64 L 233.78 307.59 L 233.98 307.54 L 234.16 307.48 L 234.35 307.40 L 234.53 307.32 L 234.72 307.23 L 234.89 307.12 L 235.07 307.01 L 235.24 306.89 L 235.24 306.89 L 235.41 306.77 L 235.57 306.63 L 235.73 306.49 L 235.88 306.33 L 236.02 306.16 L 236.16 305.97 L 236.30 305.78 L 236.42 305.57 L 236.55 305.34 L 236.66 305.11 L 236.66 305.11 L 236.77 304.86 L 236.87 304.59 L 236.95 304.30 L 237.03 303.99 L 237.09 303.67 L 237.14 303.33 L 237.18 302.96 L 237.21 302.58 L 237.23 302.18 L 237.23 301.77 L 237.23 269.26 ZM 235.52 255.60 L 235.52 255.60 L 235.50 255.40 L 235.47 255.21 L 235.45 255.02 L 235.42 254.83 L 235.40 254.64 L 235.38 254.46 L 235.36 254.28 L 235.34 254.10 L 235.33 253.92 L 235.31 253.75 L 235.31 253.75 L 235.30 253.57 L 235.29 253.39 L 235.27 253.21 L 235.27 253.03 L 235.26 252.86 L 235.25 252.69 L 235.25 252.53 L 235.24 252.36 L 235.24 252.20 L 235.24 252.04 L 235.24 252.04 L 235.24 251.89 L 235.24 251.73 L 235.25 251.57 L 235.25 251.41 L 235.26 251.24 L 235.27 251.08 L 235.27 250.91 L 235.29 250.75 L 235.30 250.58 L 235.31 250.41 L 235.31 250.41 L 235.33 250.22 L 235.34 250.04 L 235.36 249.85 L 235.38 249.67 L 235.40 249.48 L 235.42 249.30 L 235.45 249.11 L 235.47 248.93 L 235.50 248.74 L 235.52 248.56 L 235.52 248.56 L 235.71 248.53 L 235.90 248.51 L 236.09 248.48 L 236.29 248.46 L 236.48 248.43 L 236.69 248.41 L 236.89 248.39 L 237.10 248.38 L 237.30 248.36 L 237.52 248.35 L 237.52 248.35 L 237.73 248.32 L 237.93 248.29 L 238.13 248.27 L 238.32 248.25 L 238.51 248.24 L 238.69 248.23 L 238.87 248.22 L 239.04 248.21 L 239.21 248.21 L 239.37 248.20 L 239.37 248.20 L 239.52 248.21 L 239.69 248.21 L 239.85 248.22 L 240.03 248.23 L 240.20 248.24 L 240.38 248.25 L 240.57 248.27 L 240.75 248.29 L 240.95 248.32 L 241.14 248.35 L 241.14 248.35 L 241.36 248.36 L 241.56 248.38 L 241.76 248.39 L 241.96 248.41 L 242.16 248.43 L 242.35 248.46 L 242.53 248.48 L 242.71 248.51 L 242.89 248.53 L 243.06 248.56 L 243.06 248.56 L 243.09 248.74 L 243.12 248.93 L 243.14 249.11 L 243.17 249.30 L 243.19 249.48 L 243.21 249.67 L 243.23 249.85 L 243.25 250.04 L 243.26 250.22 L 243.28 250.41 L 243.28 250.41 L 243.29 250.58 L 243.30 250.75 L 243.31 250.91 L 243.32 251.08 L 243.33 251.24 L 243.34 251.41 L 243.34 251.57 L 243.35 251.73 L 243.35 251.89 L 243.35 252.04 L 243.35 252.04 L 243.35 252.20 L 243.35 252.36 L 243.34 252.53 L 243.34 252.69 L 243.33 252.86 L 243.32 253.03 L 243.31 253.21 L 243.30 253.39 L 243.29 253.57 L 243.28 253.75 L 243.28 253.75 L 243.26 253.92 L 243.25 254.10 L 243.23 254.28 L 243.21 254.46 L 243.19 254.64 L 243.17 254.83 L 243.14 255.02 L 243.12 255.21 L 243.09 255.40 L 243.06 255.60 L 243.06 255.60 L 242.89 255.63 L 242.71 255.66 L 242.53 255.69 L 242.35 255.72 L 242.16 255.74 L 241.96 255.77 L 241.76 255.80 L 241.56 255.83 L 241.36 255.86 L 241.14 255.89 L 241.14 255.89 L 240.95 255.90 L 240.75 255.91 L 240.57 255.92 L 240.38 255.93 L 240.20 255.94 L 240.03 255.95 L 239.85 255.95 L 239.69 255.95 L 239.52 255.96 L 239.37 255.96 L 239.37 255.96 L 239.21 255.96 L 239.04 255.95 L 238.87 255.95 L 238.69 255.95 L 238.51 255.94 L 238.32 255.93 L 238.13 255.92 L 237.93 255.91 L 237.73 255.90 L 237.52 255.89 L 237.52 255.89 L 237.30 255.86 L 237.10 255.83 L 236.89 255.80 L 236.69 255.77 L 236.48 255.74 L 236.29 255.72 L 236.09 255.69 L 235.90 255.66 L 235.71 255.63 L 235.52 255.60 Z"
     style="fill-rule: evenodd; fill: #FFFFFF; stroke-width: 0.75; stroke: none;"
     clip-path="url(#cpMTExLjU0fDQzMC41N3wzNjguMjV8MC4wMA==)"
     id="path250" />
  <path
     d="M 258.00 269.26 L 252.03 269.26 L 252.03 269.26 L 251.97 269.03 L 251.92 268.78 L 251.88 268.53 L 251.84 268.27 L 251.81 268.00 L 251.79 267.71 L 251.77 267.42 L 251.75 267.12 L 251.75 266.81 L 251.74 266.48 L 251.74 266.48 L 251.75 266.18 L 251.75 265.87 L 251.77 265.58 L 251.79 265.29 L 251.81 265.01 L 251.84 264.73 L 251.88 264.47 L 251.92 264.21 L 251.97 263.96 L 252.03 263.71 L 258.00 263.71 L 258.00 261.15 L 258.00 261.15 L 258.04 259.83 L 258.14 258.58 L 258.30 257.39 L 258.54 256.27 L 258.84 255.21 L 259.21 254.22 L 259.64 253.29 L 260.14 252.43 L 260.71 251.64 L 261.35 250.91 L 261.35 250.91 L 262.06 250.23 L 262.83 249.63 L 263.67 249.09 L 264.57 248.63 L 265.52 248.24 L 266.54 247.92 L 267.62 247.67 L 268.77 247.49 L 269.97 247.39 L 271.23 247.35 L 271.23 247.35 L 271.58 247.35 L 271.93 247.36 L 272.26 247.37 L 272.59 247.38 L 272.90 247.40 L 273.21 247.43 L 273.51 247.45 L 273.80 247.49 L 274.09 247.52 L 274.36 247.56 L 274.36 247.56 L 274.63 247.59 L 274.90 247.63 L 275.16 247.67 L 275.42 247.71 L 275.68 247.76 L 275.93 247.81 L 276.18 247.87 L 276.43 247.93 L 276.68 247.99 L 276.92 248.06 L 276.92 248.06 L 276.89 248.41 L 276.86 248.75 L 276.83 249.08 L 276.79 249.40 L 276.75 249.72 L 276.70 250.02 L 276.65 250.31 L 276.60 250.59 L 276.55 250.86 L 276.50 251.12 L 276.50 251.12 L 276.45 251.38 L 276.40 251.64 L 276.35 251.89 L 276.29 252.16 L 276.23 252.42 L 276.16 252.68 L 276.09 252.95 L 276.02 253.21 L 275.94 253.48 L 275.86 253.75 L 275.86 253.75 L 275.71 253.72 L 275.56 253.70 L 275.40 253.67 L 275.24 253.64 L 275.07 253.61 L 274.90 253.58 L 274.72 253.55 L 274.54 253.52 L 274.35 253.50 L 274.15 253.47 L 274.15 253.47 L 273.96 253.43 L 273.76 253.39 L 273.56 253.36 L 273.34 253.33 L 273.12 253.31 L 272.89 253.29 L 272.65 253.27 L 272.40 253.26 L 272.14 253.26 L 271.87 253.25 L 271.87 253.25 L 271.56 253.26 L 271.26 253.27 L 270.96 253.29 L 270.67 253.31 L 270.38 253.34 L 270.10 253.38 L 269.82 253.43 L 269.55 253.48 L 269.29 253.54 L 269.03 253.61 L 269.03 253.61 L 268.79 253.67 L 268.56 253.75 L 268.33 253.84 L 268.11 253.94 L 267.89 254.05 L 267.68 254.18 L 267.47 254.32 L 267.27 254.47 L 267.08 254.64 L 266.89 254.82 L 266.89 254.82 L 266.73 255.00 L 266.57 255.19 L 266.41 255.40 L 266.27 255.63 L 266.13 255.87 L 266.00 256.12 L 265.87 256.40 L 265.76 256.69 L 265.65 256.99 L 265.54 257.31 L 265.54 257.31 L 265.45 257.63 L 265.36 257.97 L 265.29 258.33 L 265.22 258.71 L 265.17 259.10 L 265.12 259.52 L 265.09 259.95 L 265.06 260.40 L 265.05 260.87 L 265.04 261.36 L 265.04 263.71 L 274.36 263.71 L 274.36 263.71 L 274.40 264.00 L 274.44 264.28 L 274.47 264.57 L 274.50 264.86 L 274.52 265.15 L 274.54 265.44 L 274.56 265.74 L 274.57 266.03 L 274.57 266.33 L 274.58 266.63 L 274.58 266.63 L 274.57 266.90 L 274.57 267.16 L 274.56 267.43 L 274.54 267.70 L 274.52 267.96 L 274.50 268.22 L 274.47 268.48 L 274.44 268.74 L 274.40 269.00 L 274.36 269.26 L 265.04 269.26 L 265.04 300.20 L 265.04 300.20 L 264.89 300.23 L 264.72 300.26 L 264.56 300.28 L 264.38 300.30 L 264.21 300.33 L 264.03 300.35 L 263.84 300.37 L 263.66 300.38 L 263.46 300.40 L 263.27 300.41 L 263.27 300.41 L 263.08 300.43 L 262.90 300.44 L 262.72 300.45 L 262.55 300.46 L 262.38 300.47 L 262.21 300.47 L 262.04 300.48 L 261.88 300.48 L 261.72 300.48 L 261.56 300.49 L 261.56 300.49 L 261.40 300.48 L 261.24 300.48 L 261.07 300.48 L 260.90 300.47 L 260.72 300.47 L 260.54 300.46 L 260.36 300.45 L 260.17 300.44 L 259.98 300.43 L 259.78 300.41 L 259.78 300.41 L 259.58 300.40 L 259.39 300.38 L 259.20 300.37 L 259.02 300.35 L 258.84 300.33 L 258.66 300.30 L 258.49 300.28 L 258.32 300.26 L 258.16 300.23 L 258.00 300.20 L 258.00 269.26 Z"
     style="fill-rule: evenodd; fill: #FFFFFF; stroke-width: 0.75; stroke: none;"
     clip-path="url(#cpMTExLjU0fDQzMC41N3wzNjguMjV8MC4wMA==)"
     id="path252" />
  <path
     d="M 301.11 283.06 L 301.11 283.06 L 300.89 283.03 L 300.66 283.00 L 300.42 282.97 L 300.16 282.94 L 299.90 282.92 L 299.62 282.89 L 299.34 282.86 L 299.04 282.83 L 298.73 282.80 L 298.41 282.77 L 298.41 282.77 L 298.08 282.75 L 297.77 282.72 L 297.47 282.70 L 297.18 282.68 L 296.89 282.67 L 296.62 282.65 L 296.36 282.64 L 296.11 282.64 L 295.86 282.63 L 295.63 282.63 L 295.63 282.63 L 294.77 282.65 L 293.95 282.70 L 293.17 282.78 L 292.43 282.89 L 291.74 283.04 L 291.08 283.22 L 290.47 283.43 L 289.89 283.68 L 289.36 283.96 L 288.87 284.27 L 288.87 284.27 L 288.44 284.61 L 288.05 284.99 L 287.71 285.40 L 287.42 285.85 L 287.17 286.33 L 286.96 286.85 L 286.80 287.39 L 286.69 287.98 L 286.62 288.60 L 286.60 289.25 L 286.60 289.25 L 286.61 289.66 L 286.63 290.06 L 286.67 290.44 L 286.72 290.81 L 286.79 291.15 L 286.88 291.47 L 286.98 291.78 L 287.10 292.07 L 287.23 292.34 L 287.38 292.59 L 287.38 292.59 L 287.54 292.83 L 287.71 293.05 L 287.88 293.26 L 288.06 293.47 L 288.25 293.66 L 288.45 293.84 L 288.65 294.00 L 288.86 294.16 L 289.08 294.31 L 289.30 294.44 L 289.30 294.44 L 289.54 294.56 L 289.79 294.68 L 290.04 294.78 L 290.30 294.87 L 290.56 294.96 L 290.83 295.03 L 291.10 295.09 L 291.37 295.14 L 291.65 295.19 L 291.93 295.22 L 291.93 295.22 L 292.22 295.25 L 292.50 295.27 L 292.77 295.29 L 293.05 295.31 L 293.32 295.33 L 293.59 295.34 L 293.85 295.35 L 294.12 295.36 L 294.38 295.36 L 294.64 295.36 L 294.64 295.36 L 294.96 295.36 L 295.29 295.36 L 295.62 295.35 L 295.96 295.34 L 296.29 295.33 L 296.62 295.31 L 296.96 295.29 L 297.30 295.27 L 297.64 295.25 L 297.98 295.22 L 297.98 295.22 L 298.33 295.18 L 298.67 295.13 L 299.01 295.08 L 299.33 295.03 L 299.65 294.97 L 299.96 294.91 L 300.26 294.85 L 300.55 294.79 L 300.83 294.72 L 301.11 294.65 L 301.11 283.06 ZM 301.11 276.16 L 301.11 276.16 L 301.09 275.34 L 301.02 274.58 L 300.92 273.87 L 300.77 273.21 L 300.57 272.60 L 300.34 272.04 L 300.06 271.54 L 299.74 271.08 L 299.38 270.68 L 298.97 270.33 L 298.97 270.33 L 298.53 270.01 L 298.04 269.74 L 297.52 269.49 L 296.96 269.28 L 296.36 269.10 L 295.72 268.95 L 295.05 268.84 L 294.33 268.76 L 293.58 268.71 L 292.79 268.69 L 292.79 268.69 L 292.29 268.69 L 291.80 268.71 L 291.32 268.73 L 290.84 268.76 L 290.37 268.80 L 289.90 268.84 L 289.44 268.90 L 288.98 268.96 L 288.53 269.04 L 288.09 269.12 L 288.09 269.12 L 287.66 269.19 L 287.24 269.27 L 286.82 269.36 L 286.40 269.45 L 285.97 269.54 L 285.56 269.65 L 285.14 269.75 L 284.72 269.87 L 284.31 269.99 L 283.89 270.11 L 283.89 270.11 L 283.64 269.63 L 283.41 269.14 L 283.20 268.62 L 283.03 268.09 L 282.88 267.53 L 282.76 266.96 L 282.66 266.37 L 282.60 265.76 L 282.56 265.14 L 282.54 264.49 L 282.54 264.49 L 283.03 264.34 L 283.53 264.19 L 284.04 264.06 L 284.56 263.92 L 285.09 263.80 L 285.62 263.68 L 286.17 263.57 L 286.73 263.47 L 287.30 263.37 L 287.88 263.28 L 287.88 263.28 L 288.46 263.20 L 289.04 263.13 L 289.61 263.07 L 290.18 263.01 L 290.74 262.96 L 291.30 262.93 L 291.86 262.90 L 292.41 262.87 L 292.95 262.86 L 293.50 262.86 L 293.50 262.86 L 294.89 262.89 L 296.21 262.99 L 297.46 263.15 L 298.64 263.38 L 299.76 263.67 L 300.80 264.03 L 301.78 264.46 L 302.69 264.95 L 303.54 265.51 L 304.31 266.13 L 304.31 266.13 L 305.01 266.81 L 305.64 267.57 L 306.20 268.40 L 306.68 269.32 L 307.08 270.31 L 307.42 271.38 L 307.67 272.53 L 307.86 273.75 L 307.97 275.06 L 308.01 276.44 L 308.01 299.28 L 308.01 299.28 L 307.50 299.39 L 306.97 299.50 L 306.42 299.62 L 305.85 299.73 L 305.25 299.85 L 304.64 299.96 L 304.00 300.07 L 303.34 300.19 L 302.66 300.30 L 301.96 300.41 L 301.96 300.41 L 301.25 300.54 L 300.53 300.64 L 299.81 300.74 L 299.09 300.82 L 298.37 300.89 L 297.64 300.95 L 296.91 301.00 L 296.18 301.03 L 295.44 301.05 L 294.71 301.05 L 294.71 301.05 L 294.02 301.05 L 293.34 301.03 L 292.67 301.00 L 292.02 300.95 L 291.38 300.89 L 290.75 300.82 L 290.14 300.74 L 289.54 300.64 L 288.95 300.54 L 288.38 300.41 L 288.38 300.41 L 287.83 300.28 L 287.30 300.13 L 286.78 299.96 L 286.28 299.78 L 285.80 299.58 L 285.33 299.36 L 284.88 299.13 L 284.44 298.89 L 284.02 298.63 L 283.61 298.35 L 283.61 298.35 L 283.23 298.06 L 282.88 297.75 L 282.53 297.43 L 282.21 297.09 L 281.90 296.73 L 281.61 296.36 L 281.34 295.98 L 281.08 295.57 L 280.84 295.16 L 280.62 294.72 L 280.62 294.72 L 280.42 294.27 L 280.24 293.80 L 280.08 293.32 L 279.94 292.81 L 279.82 292.29 L 279.73 291.74 L 279.65 291.18 L 279.60 290.60 L 279.57 290.01 L 279.56 289.39 L 279.56 289.39 L 279.57 288.79 L 279.60 288.20 L 279.66 287.62 L 279.75 287.07 L 279.86 286.53 L 279.99 286.00 L 280.15 285.49 L 280.33 285.00 L 280.53 284.52 L 280.76 284.05 L 280.76 284.05 L 281.03 283.59 L 281.31 283.15 L 281.61 282.72 L 281.93 282.31 L 282.26 281.92 L 282.61 281.54 L 282.98 281.19 L 283.36 280.84 L 283.76 280.52 L 284.18 280.21 L 284.18 280.21 L 284.61 279.91 L 285.06 279.62 L 285.52 279.35 L 285.99 279.10 L 286.47 278.86 L 286.97 278.64 L 287.48 278.44 L 288.00 278.26 L 288.54 278.09 L 289.09 277.94 L 289.09 277.94 L 289.64 277.79 L 290.21 277.66 L 290.78 277.54 L 291.35 277.44 L 291.93 277.35 L 292.52 277.28 L 293.11 277.22 L 293.71 277.19 L 294.31 277.16 L 294.92 277.15 L 294.92 277.15 L 295.37 277.16 L 295.80 277.16 L 296.21 277.17 L 296.60 277.18 L 296.98 277.19 L 297.34 277.21 L 297.69 277.22 L 298.02 277.25 L 298.33 277.27 L 298.62 277.30 L 298.62 277.30 L 298.91 277.31 L 299.20 277.33 L 299.47 277.35 L 299.73 277.36 L 299.99 277.39 L 300.23 277.41 L 300.47 277.43 L 300.69 277.46 L 300.90 277.48 L 301.11 277.51 L 301.11 276.16 Z"
     style="fill-rule: evenodd; fill: #FFFFFF; stroke-width: 0.75; stroke: none;"
     clip-path="url(#cpMTExLjU0fDQzMC41N3wzNjguMjV8MC4wMA==)"
     id="path254" />
  <path
     d="M 301.25 330.25 L 300.32 330.79 L 300.32 330.79 L 300.31 330.78 L 300.30 330.76 L 300.29 330.75 L 300.27 330.73 L 300.26 330.72 L 300.25 330.70 L 300.24 330.69 L 300.23 330.67 L 300.22 330.66 L 300.20 330.64 L 300.20 330.64 L 300.19 330.62 L 300.18 330.61 L 300.17 330.59 L 300.16 330.57 L 300.15 330.56 L 300.14 330.54 L 300.13 330.52 L 300.12 330.51 L 300.11 330.49 L 300.10 330.47 L 300.10 330.47 L 300.09 330.46 L 300.08 330.44 L 300.07 330.42 L 300.06 330.41 L 300.05 330.39 L 300.05 330.37 L 300.04 330.36 L 300.03 330.34 L 300.02 330.32 L 300.01 330.31 L 300.01 330.31 L 300.00 330.29 L 300.00 330.27 L 299.99 330.25 L 299.98 330.23 L 299.97 330.22 L 299.97 330.20 L 299.96 330.18 L 299.95 330.16 L 299.95 330.15 L 299.94 330.13 L 301.63 329.16 L 303.84 332.99 L 303.84 332.99 L 303.89 333.08 L 303.94 333.17 L 303.98 333.25 L 304.02 333.34 L 304.05 333.42 L 304.08 333.50 L 304.11 333.57 L 304.14 333.65 L 304.16 333.72 L 304.18 333.80 L 304.18 333.80 L 304.19 333.87 L 304.20 333.94 L 304.21 334.01 L 304.21 334.07 L 304.22 334.14 L 304.21 334.20 L 304.21 334.27 L 304.20 334.33 L 304.19 334.39 L 304.18 334.45 L 304.18 334.45 L 304.16 334.50 L 304.14 334.56 L 304.11 334.61 L 304.09 334.66 L 304.06 334.72 L 304.03 334.77 L 303.99 334.82 L 303.95 334.87 L 303.91 334.91 L 303.87 334.96 L 303.87 334.96 L 303.83 335.00 L 303.78 335.05 L 303.73 335.10 L 303.68 335.14 L 303.62 335.18 L 303.57 335.22 L 303.51 335.27 L 303.45 335.31 L 303.38 335.35 L 303.32 335.39 L 303.32 335.39 L 303.28 335.41 L 303.25 335.43 L 303.21 335.44 L 303.17 335.46 L 303.14 335.48 L 303.10 335.50 L 303.06 335.51 L 303.02 335.53 L 302.99 335.55 L 302.95 335.56 L 302.95 335.56 L 302.91 335.58 L 302.87 335.59 L 302.84 335.61 L 302.80 335.62 L 302.76 335.63 L 302.73 335.65 L 302.69 335.66 L 302.66 335.67 L 302.62 335.68 L 302.59 335.69 L 302.59 335.69 L 302.57 335.66 L 302.55 335.63 L 302.54 335.60 L 302.52 335.57 L 302.51 335.53 L 302.49 335.50 L 302.48 335.47 L 302.46 335.43 L 302.45 335.40 L 302.44 335.36 L 302.44 335.36 L 302.43 335.33 L 302.41 335.29 L 302.40 335.25 L 302.39 335.21 L 302.38 335.18 L 302.37 335.14 L 302.36 335.10 L 302.35 335.06 L 302.34 335.02 L 302.34 334.98 L 302.34 334.98 L 302.36 334.97 L 302.38 334.97 L 302.40 334.96 L 302.42 334.95 L 302.44 334.95 L 302.47 334.94 L 302.49 334.93 L 302.51 334.93 L 302.54 334.92 L 302.56 334.91 L 302.56 334.91 L 302.59 334.90 L 302.62 334.89 L 302.64 334.88 L 302.67 334.87 L 302.69 334.86 L 302.72 334.85 L 302.75 334.84 L 302.77 334.82 L 302.80 334.81 L 302.82 334.80 L 302.82 334.80 L 302.85 334.78 L 302.87 334.76 L 302.90 334.75 L 302.93 334.73 L 302.95 334.71 L 302.98 334.70 L 303.00 334.68 L 303.03 334.66 L 303.05 334.64 L 303.07 334.62 L 303.07 334.62 L 303.10 334.60 L 303.12 334.58 L 303.15 334.55 L 303.17 334.53 L 303.19 334.51 L 303.21 334.48 L 303.23 334.46 L 303.25 334.43 L 303.26 334.40 L 303.28 334.37 L 303.28 334.37 L 303.29 334.35 L 303.30 334.32 L 303.32 334.28 L 303.32 334.25 L 303.33 334.22 L 303.34 334.19 L 303.34 334.15 L 303.34 334.12 L 303.34 334.08 L 303.34 334.04 L 303.34 334.04 L 303.34 334.00 L 303.33 333.96 L 303.32 333.92 L 303.31 333.88 L 303.30 333.84 L 303.28 333.79 L 303.26 333.75 L 303.24 333.70 L 303.21 333.65 L 303.19 333.60 L 301.25 330.25 Z"
     style="fill-rule: evenodd; fill: #FFFFFF; stroke-width: 0.75; stroke: none;"
     clip-path="url(#cpMTExLjU0fDQzMC41N3wzNjguMjV8MC4wMA==)"
     id="path256" />
  <path
     d="M 307.87 331.01 L 305.85 332.17 L 306.20 333.61 L 306.20 333.61 L 306.18 333.62 L 306.16 333.63 L 306.14 333.65 L 306.12 333.66 L 306.11 333.67 L 306.09 333.69 L 306.07 333.70 L 306.05 333.71 L 306.03 333.73 L 306.02 333.74 L 306.02 333.74 L 306.00 333.75 L 305.98 333.76 L 305.96 333.78 L 305.94 333.79 L 305.92 333.80 L 305.90 333.81 L 305.89 333.82 L 305.87 333.84 L 305.85 333.85 L 305.83 333.86 L 305.83 333.86 L 305.81 333.87 L 305.79 333.88 L 305.77 333.89 L 305.74 333.90 L 305.72 333.92 L 305.70 333.93 L 305.68 333.94 L 305.66 333.95 L 305.64 333.96 L 305.62 333.97 L 305.62 333.97 L 305.60 333.98 L 305.58 333.99 L 305.56 334.00 L 305.54 334.01 L 305.52 334.01 L 305.50 334.02 L 305.48 334.03 L 305.46 334.04 L 305.44 334.04 L 305.43 334.05 L 304.09 327.74 L 304.09 327.74 L 304.11 327.72 L 304.12 327.71 L 304.14 327.69 L 304.16 327.68 L 304.18 327.67 L 304.20 327.65 L 304.22 327.64 L 304.24 327.62 L 304.26 327.61 L 304.28 327.60 L 304.28 327.60 L 304.30 327.58 L 304.33 327.57 L 304.35 327.55 L 304.37 327.54 L 304.39 327.52 L 304.41 327.51 L 304.44 327.50 L 304.46 327.48 L 304.48 327.47 L 304.51 327.46 L 304.51 327.46 L 304.53 327.44 L 304.55 327.43 L 304.57 327.42 L 304.59 327.41 L 304.61 327.40 L 304.64 327.38 L 304.66 327.37 L 304.68 327.36 L 304.70 327.35 L 304.73 327.34 L 304.73 327.34 L 304.75 327.33 L 304.77 327.32 L 304.79 327.31 L 304.82 327.30 L 304.84 327.29 L 304.86 327.28 L 304.89 327.27 L 304.91 327.26 L 304.93 327.25 L 304.95 327.24 L 309.74 331.56 L 309.74 331.56 L 309.73 331.57 L 309.71 331.58 L 309.69 331.60 L 309.68 331.61 L 309.66 331.63 L 309.64 331.64 L 309.62 331.65 L 309.60 331.67 L 309.58 331.68 L 309.56 331.70 L 309.56 331.70 L 309.54 331.71 L 309.51 331.72 L 309.49 331.74 L 309.47 331.75 L 309.45 331.76 L 309.43 331.78 L 309.41 331.79 L 309.39 331.80 L 309.37 331.81 L 309.35 331.83 L 309.35 331.83 L 309.33 331.84 L 309.31 331.85 L 309.29 331.86 L 309.27 331.87 L 309.25 331.88 L 309.23 331.89 L 309.21 331.90 L 309.19 331.91 L 309.16 331.92 L 309.14 331.93 L 309.14 331.93 L 309.12 331.94 L 309.10 331.95 L 309.08 331.96 L 309.06 331.97 L 309.04 331.98 L 309.02 331.99 L 309.00 332.00 L 308.98 332.00 L 308.96 332.01 L 308.95 332.02 L 307.87 331.01 ZM 305.67 331.40 L 307.29 330.46 L 304.91 328.22 L 305.67 331.40 Z"
     style="fill-rule: evenodd; fill: #FFFFFF; stroke-width: 0.75; stroke: none;"
     clip-path="url(#cpMTExLjU0fDQzMC41N3wzNjguMjV8MC4wMA==)"
     id="path258" />
  <path
     d="M 309.92 330.38 L 309.92 330.38 L 309.98 330.37 L 310.04 330.36 L 310.10 330.35 L 310.16 330.33 L 310.22 330.32 L 310.28 330.31 L 310.34 330.29 L 310.40 330.28 L 310.46 330.26 L 310.52 330.24 L 310.52 330.24 L 310.58 330.22 L 310.65 330.20 L 310.71 330.18 L 310.78 330.15 L 310.85 330.12 L 310.92 330.09 L 310.99 330.05 L 311.06 330.02 L 311.13 329.98 L 311.21 329.93 L 311.21 329.93 L 311.33 329.86 L 311.43 329.79 L 311.53 329.72 L 311.62 329.64 L 311.70 329.57 L 311.78 329.49 L 311.84 329.41 L 311.89 329.33 L 311.94 329.25 L 311.97 329.17 L 311.97 329.17 L 312.00 329.08 L 312.02 329.00 L 312.03 328.91 L 312.03 328.83 L 312.03 328.74 L 312.02 328.66 L 312.00 328.57 L 311.97 328.49 L 311.93 328.40 L 311.89 328.32 L 311.89 328.32 L 311.86 328.28 L 311.84 328.24 L 311.81 328.20 L 311.79 328.17 L 311.76 328.14 L 311.73 328.11 L 311.70 328.08 L 311.67 328.05 L 311.64 328.03 L 311.61 328.00 L 311.61 328.00 L 311.59 327.98 L 311.56 327.96 L 311.52 327.94 L 311.49 327.93 L 311.46 327.91 L 311.43 327.90 L 311.39 327.89 L 311.36 327.87 L 311.32 327.87 L 311.28 327.86 L 311.28 327.86 L 311.25 327.85 L 311.21 327.85 L 311.17 327.84 L 311.12 327.84 L 311.08 327.84 L 311.04 327.84 L 310.99 327.84 L 310.95 327.84 L 310.90 327.84 L 310.85 327.84 L 310.85 327.84 L 310.80 327.85 L 310.75 327.85 L 310.70 327.86 L 310.65 327.86 L 310.60 327.87 L 310.54 327.87 L 310.48 327.88 L 310.43 327.89 L 310.37 327.89 L 310.30 327.90 L 309.78 327.98 L 309.78 327.98 L 309.73 327.98 L 309.68 327.99 L 309.63 327.99 L 309.58 328.00 L 309.53 328.00 L 309.48 328.01 L 309.43 328.01 L 309.38 328.01 L 309.33 328.01 L 309.28 328.01 L 309.28 328.01 L 309.23 328.01 L 309.19 328.00 L 309.14 328.00 L 309.09 327.99 L 309.05 327.98 L 309.00 327.97 L 308.95 327.96 L 308.91 327.95 L 308.86 327.94 L 308.82 327.92 L 308.82 327.92 L 308.78 327.91 L 308.73 327.89 L 308.69 327.87 L 308.65 327.85 L 308.61 327.82 L 308.57 327.80 L 308.53 327.77 L 308.49 327.74 L 308.45 327.71 L 308.41 327.68 L 308.41 327.68 L 308.38 327.65 L 308.34 327.61 L 308.30 327.57 L 308.26 327.53 L 308.23 327.49 L 308.19 327.44 L 308.16 327.40 L 308.12 327.35 L 308.09 327.29 L 308.06 327.24 L 308.06 327.24 L 307.99 327.10 L 307.93 326.97 L 307.88 326.84 L 307.85 326.71 L 307.83 326.57 L 307.82 326.44 L 307.82 326.31 L 307.84 326.18 L 307.87 326.05 L 307.91 325.92 L 307.91 325.92 L 307.96 325.80 L 308.03 325.67 L 308.11 325.55 L 308.19 325.43 L 308.29 325.32 L 308.41 325.21 L 308.53 325.10 L 308.67 325.00 L 308.81 324.89 L 308.97 324.80 L 308.97 324.80 L 309.05 324.76 L 309.12 324.72 L 309.19 324.68 L 309.26 324.65 L 309.33 324.61 L 309.40 324.58 L 309.47 324.55 L 309.54 324.52 L 309.61 324.49 L 309.68 324.47 L 309.68 324.47 L 309.75 324.44 L 309.82 324.42 L 309.89 324.40 L 309.95 324.38 L 310.02 324.36 L 310.08 324.34 L 310.15 324.33 L 310.21 324.32 L 310.27 324.30 L 310.33 324.29 L 310.33 324.29 L 310.36 324.36 L 310.38 324.43 L 310.41 324.49 L 310.43 324.56 L 310.45 324.63 L 310.47 324.71 L 310.48 324.78 L 310.50 324.85 L 310.51 324.92 L 310.52 325.00 L 310.52 325.00 L 310.47 325.01 L 310.42 325.02 L 310.37 325.03 L 310.32 325.04 L 310.26 325.05 L 310.21 325.07 L 310.15 325.08 L 310.10 325.10 L 310.04 325.12 L 309.98 325.13 L 309.98 325.13 L 309.92 325.15 L 309.86 325.17 L 309.80 325.20 L 309.74 325.22 L 309.67 325.25 L 309.61 325.28 L 309.55 325.31 L 309.48 325.34 L 309.42 325.38 L 309.35 325.42 L 309.35 325.42 L 309.26 325.47 L 309.18 325.53 L 309.10 325.58 L 309.03 325.64 L 308.97 325.70 L 308.91 325.76 L 308.86 325.83 L 308.82 325.89 L 308.78 325.96 L 308.75 326.02 L 308.75 326.02 L 308.72 326.09 L 308.70 326.16 L 308.69 326.23 L 308.69 326.29 L 308.69 326.36 L 308.70 326.44 L 308.72 326.51 L 308.75 326.58 L 308.78 326.66 L 308.82 326.73 L 308.82 326.73 L 308.84 326.76 L 308.86 326.79 L 308.88 326.82 L 308.90 326.84 L 308.92 326.87 L 308.94 326.89 L 308.97 326.92 L 308.99 326.94 L 309.01 326.96 L 309.04 326.98 L 309.04 326.98 L 309.07 326.99 L 309.10 327.01 L 309.12 327.02 L 309.15 327.03 L 309.18 327.05 L 309.21 327.06 L 309.24 327.07 L 309.27 327.08 L 309.30 327.09 L 309.33 327.09 L 309.33 327.09 L 309.37 327.10 L 309.40 327.10 L 309.43 327.11 L 309.46 327.11 L 309.50 327.11 L 309.53 327.11 L 309.56 327.12 L 309.60 327.12 L 309.64 327.12 L 309.67 327.11 L 309.67 327.11 L 309.71 327.11 L 309.75 327.11 L 309.78 327.11 L 309.82 327.11 L 309.86 327.10 L 309.89 327.10 L 309.93 327.09 L 309.97 327.09 L 310.01 327.08 L 310.04 327.08 L 310.55 327.00 L 310.55 327.00 L 310.62 326.99 L 310.70 326.98 L 310.77 326.97 L 310.83 326.97 L 310.90 326.96 L 310.97 326.96 L 311.03 326.95 L 311.10 326.95 L 311.16 326.95 L 311.22 326.95 L 311.22 326.95 L 311.28 326.95 L 311.34 326.95 L 311.40 326.95 L 311.46 326.96 L 311.51 326.96 L 311.57 326.97 L 311.63 326.98 L 311.68 327.00 L 311.74 327.01 L 311.79 327.03 L 311.79 327.03 L 311.84 327.04 L 311.89 327.06 L 311.94 327.08 L 311.99 327.10 L 312.04 327.13 L 312.09 327.16 L 312.13 327.19 L 312.18 327.22 L 312.22 327.25 L 312.27 327.29 L 312.27 327.29 L 312.31 327.33 L 312.36 327.37 L 312.40 327.41 L 312.44 327.46 L 312.48 327.51 L 312.52 327.56 L 312.56 327.62 L 312.60 327.67 L 312.64 327.73 L 312.68 327.79 L 312.68 327.79 L 312.76 327.95 L 312.82 328.10 L 312.88 328.25 L 312.91 328.40 L 312.94 328.55 L 312.95 328.70 L 312.94 328.85 L 312.93 329.00 L 312.89 329.15 L 312.85 329.30 L 312.85 329.30 L 312.79 329.45 L 312.71 329.59 L 312.62 329.73 L 312.52 329.86 L 312.41 329.99 L 312.28 330.12 L 312.14 330.24 L 311.98 330.36 L 311.81 330.48 L 311.63 330.59 L 311.63 330.59 L 311.58 330.61 L 311.54 330.64 L 311.49 330.66 L 311.45 330.69 L 311.41 330.71 L 311.37 330.73 L 311.32 330.75 L 311.28 330.77 L 311.24 330.79 L 311.21 330.81 L 311.21 330.81 L 311.17 330.83 L 311.13 330.85 L 311.09 330.87 L 311.05 330.88 L 311.02 330.90 L 310.98 330.91 L 310.94 330.93 L 310.91 330.94 L 310.87 330.96 L 310.83 330.97 L 310.83 330.97 L 310.80 330.98 L 310.76 330.99 L 310.73 331.00 L 310.69 331.01 L 310.66 331.02 L 310.63 331.03 L 310.59 331.04 L 310.56 331.05 L 310.52 331.06 L 310.49 331.07 L 310.49 331.07 L 310.45 331.08 L 310.42 331.09 L 310.38 331.09 L 310.35 331.10 L 310.31 331.11 L 310.27 331.12 L 310.24 331.13 L 310.20 331.13 L 310.17 331.14 L 310.13 331.15 L 310.13 331.15 L 310.11 331.11 L 310.10 331.08 L 310.08 331.04 L 310.07 331.01 L 310.06 330.97 L 310.05 330.93 L 310.03 330.89 L 310.02 330.86 L 310.01 330.82 L 310.00 330.78 L 310.00 330.78 L 309.99 330.74 L 309.98 330.70 L 309.98 330.66 L 309.97 330.62 L 309.96 330.58 L 309.95 330.54 L 309.94 330.50 L 309.94 330.46 L 309.93 330.42 L 309.92 330.38 Z"
     style="fill-rule: evenodd; fill: #FFFFFF; stroke-width: 0.75; stroke: none;"
     clip-path="url(#cpMTExLjU0fDQzMC41N3wzNjguMjV8MC4wMA==)"
     id="path260" />
  <path
     d="M 311.48 323.46 L 311.48 323.46 L 311.50 323.45 L 311.52 323.43 L 311.54 323.41 L 311.56 323.39 L 311.59 323.38 L 311.61 323.36 L 311.64 323.34 L 311.66 323.32 L 311.69 323.30 L 311.72 323.28 L 311.72 323.28 L 311.75 323.26 L 311.78 323.24 L 311.81 323.22 L 311.84 323.20 L 311.87 323.18 L 311.90 323.16 L 311.93 323.14 L 311.96 323.12 L 311.99 323.10 L 312.02 323.08 L 312.02 323.08 L 312.05 323.05 L 312.09 323.03 L 312.12 323.01 L 312.15 322.99 L 312.18 322.97 L 312.22 322.95 L 312.25 322.92 L 312.28 322.90 L 312.31 322.88 L 312.34 322.86 L 312.34 322.86 L 312.38 322.84 L 312.41 322.82 L 312.44 322.80 L 312.47 322.78 L 312.51 322.76 L 312.54 322.74 L 312.57 322.72 L 312.60 322.70 L 312.63 322.69 L 312.66 322.67 L 312.66 322.67 L 312.74 322.62 L 312.83 322.58 L 312.91 322.54 L 312.99 322.50 L 313.07 322.46 L 313.15 322.42 L 313.23 322.39 L 313.32 322.36 L 313.40 322.33 L 313.48 322.30 L 313.48 322.30 L 313.56 322.28 L 313.64 322.26 L 313.73 322.24 L 313.81 322.23 L 313.89 322.22 L 313.97 322.21 L 314.05 322.21 L 314.13 322.20 L 314.21 322.21 L 314.28 322.21 L 314.28 322.21 L 314.36 322.22 L 314.44 322.24 L 314.52 322.25 L 314.59 322.28 L 314.67 322.30 L 314.74 322.33 L 314.82 322.37 L 314.89 322.40 L 314.96 322.44 L 315.04 322.49 L 315.04 322.49 L 315.10 322.54 L 315.17 322.59 L 315.24 322.65 L 315.31 322.72 L 315.37 322.79 L 315.43 322.86 L 315.49 322.94 L 315.55 323.03 L 315.61 323.12 L 315.67 323.22 L 315.67 323.22 L 315.73 323.32 L 315.78 323.42 L 315.83 323.52 L 315.87 323.62 L 315.90 323.72 L 315.93 323.81 L 315.95 323.91 L 315.97 324.00 L 315.99 324.09 L 315.99 324.18 L 315.99 324.18 L 316.00 324.27 L 316.00 324.36 L 315.99 324.44 L 315.98 324.52 L 315.97 324.61 L 315.95 324.69 L 315.93 324.77 L 315.91 324.84 L 315.88 324.92 L 315.85 325.00 L 315.85 325.00 L 315.82 325.07 L 315.78 325.14 L 315.74 325.21 L 315.70 325.28 L 315.65 325.35 L 315.60 325.41 L 315.55 325.48 L 315.50 325.54 L 315.44 325.60 L 315.38 325.66 L 315.38 325.66 L 315.31 325.72 L 315.25 325.78 L 315.18 325.83 L 315.12 325.88 L 315.05 325.94 L 314.98 325.99 L 314.91 326.03 L 314.83 326.08 L 314.76 326.13 L 314.69 326.17 L 314.69 326.17 L 314.66 326.19 L 314.63 326.20 L 314.60 326.22 L 314.58 326.23 L 314.55 326.25 L 314.53 326.26 L 314.50 326.28 L 314.48 326.29 L 314.46 326.30 L 314.44 326.32 L 314.44 326.32 L 314.41 326.33 L 314.39 326.34 L 314.37 326.35 L 314.34 326.36 L 314.32 326.37 L 314.30 326.38 L 314.27 326.39 L 314.25 326.40 L 314.22 326.42 L 314.19 326.43 L 315.30 328.35 L 315.30 328.35 L 315.27 328.37 L 315.24 328.40 L 315.20 328.42 L 315.17 328.45 L 315.13 328.47 L 315.09 328.49 L 315.06 328.52 L 315.02 328.54 L 314.98 328.57 L 314.94 328.59 L 314.94 328.59 L 314.92 328.60 L 314.90 328.61 L 314.88 328.62 L 314.86 328.63 L 314.85 328.64 L 314.83 328.65 L 314.80 328.66 L 314.78 328.67 L 314.76 328.68 L 314.74 328.69 L 314.74 328.69 L 314.72 328.70 L 314.70 328.71 L 314.68 328.72 L 314.66 328.73 L 314.65 328.74 L 314.63 328.75 L 314.61 328.76 L 314.59 328.77 L 314.57 328.78 L 314.55 328.78 L 311.48 323.46 ZM 313.81 325.77 L 313.81 325.77 L 313.84 325.76 L 313.86 325.75 L 313.89 325.74 L 313.91 325.73 L 313.93 325.72 L 313.95 325.71 L 313.97 325.70 L 313.99 325.69 L 314.01 325.68 L 314.03 325.67 L 314.03 325.67 L 314.05 325.66 L 314.07 325.65 L 314.10 325.64 L 314.12 325.63 L 314.15 325.61 L 314.17 325.60 L 314.20 325.58 L 314.23 325.57 L 314.26 325.55 L 314.30 325.53 L 314.30 325.53 L 314.34 325.50 L 314.39 325.47 L 314.43 325.45 L 314.47 325.42 L 314.52 325.39 L 314.56 325.36 L 314.60 325.32 L 314.64 325.29 L 314.68 325.26 L 314.72 325.22 L 314.72 325.22 L 314.76 325.19 L 314.80 325.15 L 314.83 325.11 L 314.87 325.07 L 314.90 325.03 L 314.93 324.99 L 314.95 324.95 L 314.98 324.90 L 315.00 324.86 L 315.03 324.81 L 315.03 324.81 L 315.05 324.77 L 315.06 324.72 L 315.08 324.67 L 315.09 324.62 L 315.10 324.57 L 315.11 324.52 L 315.11 324.47 L 315.11 324.42 L 315.11 324.36 L 315.11 324.31 L 315.11 324.31 L 315.10 324.25 L 315.10 324.19 L 315.08 324.13 L 315.07 324.07 L 315.05 324.01 L 315.02 323.95 L 315.00 323.88 L 314.97 323.81 L 314.93 323.75 L 314.89 323.68 L 314.89 323.68 L 314.86 323.62 L 314.82 323.56 L 314.78 323.51 L 314.75 323.46 L 314.71 323.41 L 314.67 323.37 L 314.63 323.33 L 314.59 323.29 L 314.54 323.25 L 314.50 323.22 L 314.50 323.22 L 314.46 323.19 L 314.42 323.17 L 314.37 323.14 L 314.33 323.12 L 314.29 323.10 L 314.24 323.08 L 314.20 323.07 L 314.15 323.05 L 314.11 323.04 L 314.06 323.03 L 314.06 323.03 L 314.01 323.03 L 313.96 323.03 L 313.92 323.03 L 313.87 323.03 L 313.82 323.03 L 313.77 323.04 L 313.72 323.05 L 313.67 323.06 L 313.62 323.07 L 313.56 323.08 L 313.56 323.08 L 313.51 323.10 L 313.46 323.12 L 313.41 323.14 L 313.36 323.16 L 313.30 323.18 L 313.25 323.21 L 313.20 323.23 L 313.15 323.26 L 313.09 323.29 L 313.04 323.32 L 313.04 323.32 L 312.99 323.35 L 312.93 323.38 L 312.88 323.41 L 312.83 323.44 L 312.79 323.47 L 312.74 323.50 L 312.69 323.53 L 312.65 323.56 L 312.61 323.59 L 312.57 323.62 L 313.81 325.77 Z"
     style="fill-rule: evenodd; fill: #FFFFFF; stroke-width: 0.75; stroke: none;"
     clip-path="url(#cpMTExLjU0fDQzMC41N3wzNjguMjV8MC4wMA==)"
     id="path262" />
  <path
     d="M 318.83 322.03 L 318.21 322.38 L 318.21 322.38 L 318.19 322.36 L 318.17 322.34 L 318.15 322.32 L 318.13 322.29 L 318.11 322.27 L 318.09 322.24 L 318.07 322.21 L 318.05 322.18 L 318.03 322.15 L 318.01 322.11 L 318.01 322.11 L 317.99 322.08 L 317.98 322.05 L 317.96 322.02 L 317.94 321.99 L 317.93 321.96 L 317.92 321.93 L 317.90 321.90 L 317.89 321.87 L 317.88 321.84 L 317.87 321.81 L 318.49 321.45 L 318.34 321.18 L 318.34 321.18 L 318.27 321.04 L 318.20 320.91 L 318.15 320.77 L 318.10 320.64 L 318.07 320.52 L 318.05 320.39 L 318.04 320.27 L 318.04 320.15 L 318.05 320.03 L 318.07 319.92 L 318.07 319.92 L 318.11 319.80 L 318.15 319.70 L 318.21 319.59 L 318.27 319.49 L 318.35 319.39 L 318.43 319.30 L 318.53 319.20 L 318.64 319.12 L 318.76 319.03 L 318.89 318.96 L 318.89 318.96 L 318.92 318.93 L 318.96 318.91 L 319.00 318.90 L 319.03 318.88 L 319.07 318.86 L 319.10 318.84 L 319.13 318.83 L 319.16 318.82 L 319.20 318.80 L 319.23 318.79 L 319.23 318.79 L 319.26 318.78 L 319.29 318.76 L 319.32 318.75 L 319.35 318.74 L 319.37 318.73 L 319.40 318.72 L 319.43 318.71 L 319.46 318.70 L 319.49 318.70 L 319.52 318.69 L 319.52 318.69 L 319.54 318.73 L 319.56 318.76 L 319.57 318.80 L 319.59 318.84 L 319.60 318.87 L 319.62 318.90 L 319.63 318.94 L 319.64 318.97 L 319.65 319.00 L 319.66 319.03 L 319.66 319.03 L 319.67 319.06 L 319.68 319.09 L 319.69 319.12 L 319.70 319.15 L 319.71 319.18 L 319.72 319.21 L 319.73 319.25 L 319.74 319.28 L 319.75 319.31 L 319.75 319.34 L 319.75 319.34 L 319.74 319.35 L 319.72 319.35 L 319.70 319.36 L 319.68 319.37 L 319.66 319.38 L 319.64 319.38 L 319.62 319.39 L 319.60 319.40 L 319.58 319.41 L 319.56 319.42 L 319.56 319.42 L 319.54 319.42 L 319.51 319.43 L 319.49 319.44 L 319.47 319.45 L 319.44 319.46 L 319.42 319.47 L 319.39 319.49 L 319.36 319.50 L 319.34 319.51 L 319.31 319.53 L 319.31 319.53 L 319.28 319.55 L 319.25 319.57 L 319.22 319.59 L 319.19 319.61 L 319.16 319.63 L 319.13 319.65 L 319.11 319.67 L 319.08 319.69 L 319.06 319.72 L 319.03 319.74 L 319.03 319.74 L 319.01 319.76 L 318.99 319.78 L 318.98 319.80 L 318.96 319.83 L 318.94 319.85 L 318.93 319.88 L 318.92 319.91 L 318.90 319.93 L 318.89 319.96 L 318.89 319.99 L 318.89 319.99 L 318.88 320.02 L 318.87 320.05 L 318.87 320.08 L 318.87 320.11 L 318.87 320.15 L 318.87 320.18 L 318.87 320.22 L 318.88 320.25 L 318.89 320.29 L 318.89 320.33 L 318.89 320.33 L 318.90 320.37 L 318.92 320.41 L 318.93 320.45 L 318.95 320.50 L 318.96 320.54 L 318.98 320.59 L 319.01 320.63 L 319.03 320.68 L 319.06 320.73 L 319.09 320.78 L 319.23 321.03 L 320.20 320.47 L 320.20 320.47 L 320.22 320.49 L 320.24 320.52 L 320.26 320.55 L 320.28 320.58 L 320.30 320.61 L 320.32 320.64 L 320.34 320.67 L 320.36 320.70 L 320.37 320.73 L 320.39 320.76 L 320.39 320.76 L 320.41 320.79 L 320.42 320.81 L 320.44 320.84 L 320.45 320.87 L 320.47 320.90 L 320.48 320.93 L 320.49 320.96 L 320.51 320.99 L 320.52 321.02 L 320.53 321.04 L 319.56 321.60 L 321.42 324.82 L 321.42 324.82 L 321.40 324.83 L 321.39 324.84 L 321.37 324.86 L 321.35 324.87 L 321.34 324.88 L 321.32 324.89 L 321.30 324.91 L 321.28 324.92 L 321.26 324.93 L 321.24 324.95 L 321.24 324.95 L 321.23 324.96 L 321.21 324.97 L 321.19 324.98 L 321.17 325.00 L 321.15 325.01 L 321.14 325.02 L 321.12 325.03 L 321.10 325.04 L 321.09 325.05 L 321.07 325.06 L 321.07 325.06 L 321.05 325.07 L 321.04 325.08 L 321.02 325.09 L 321.00 325.10 L 320.98 325.11 L 320.96 325.12 L 320.94 325.13 L 320.92 325.14 L 320.90 325.15 L 320.88 325.16 L 320.88 325.16 L 320.86 325.17 L 320.84 325.18 L 320.82 325.19 L 320.80 325.20 L 320.78 325.20 L 320.76 325.21 L 320.74 325.22 L 320.72 325.23 L 320.70 325.23 L 320.68 325.24 L 318.83 322.03 Z"
     style="fill-rule: evenodd; fill: #FFFFFF; stroke-width: 0.75; stroke: none;"
     clip-path="url(#cpMTExLjU0fDQzMC41N3wzNjguMjV8MC4wMA==)"
     id="path264" />
  <path
     d="M 324.75 323.01 L 324.75 323.01 L 324.66 323.06 L 324.57 323.11 L 324.49 323.15 L 324.40 323.18 L 324.31 323.22 L 324.23 323.24 L 324.14 323.27 L 324.06 323.29 L 323.97 323.30 L 323.89 323.31 L 323.89 323.31 L 323.80 323.32 L 323.72 323.32 L 323.64 323.32 L 323.56 323.31 L 323.48 323.31 L 323.40 323.29 L 323.32 323.28 L 323.24 323.26 L 323.17 323.24 L 323.09 323.21 L 323.09 323.21 L 323.02 323.18 L 322.94 323.15 L 322.87 323.11 L 322.80 323.08 L 322.73 323.03 L 322.66 322.99 L 322.59 322.94 L 322.53 322.89 L 322.46 322.83 L 322.39 322.78 L 322.39 322.78 L 322.33 322.71 L 322.27 322.65 L 322.21 322.58 L 322.16 322.51 L 322.10 322.44 L 322.04 322.37 L 321.99 322.29 L 321.94 322.22 L 321.89 322.13 L 321.84 322.05 L 321.84 322.05 L 321.79 321.97 L 321.75 321.88 L 321.71 321.80 L 321.67 321.71 L 321.63 321.63 L 321.60 321.55 L 321.57 321.46 L 321.54 321.38 L 321.51 321.29 L 321.49 321.21 L 321.49 321.21 L 321.47 321.12 L 321.46 321.04 L 321.45 320.96 L 321.44 320.87 L 321.43 320.79 L 321.43 320.71 L 321.43 320.63 L 321.44 320.55 L 321.45 320.47 L 321.46 320.39 L 321.46 320.39 L 321.48 320.31 L 321.49 320.23 L 321.52 320.16 L 321.54 320.08 L 321.57 320.01 L 321.60 319.93 L 321.64 319.86 L 321.68 319.79 L 321.72 319.72 L 321.77 319.65 L 321.77 319.65 L 321.82 319.58 L 321.88 319.51 L 321.93 319.45 L 322.00 319.38 L 322.06 319.32 L 322.13 319.26 L 322.21 319.20 L 322.29 319.15 L 322.37 319.10 L 322.46 319.04 L 322.46 319.04 L 322.55 318.99 L 322.63 318.95 L 322.72 318.91 L 322.81 318.87 L 322.90 318.84 L 322.98 318.81 L 323.07 318.79 L 323.15 318.77 L 323.24 318.76 L 323.32 318.75 L 323.32 318.75 L 323.41 318.74 L 323.49 318.74 L 323.57 318.74 L 323.65 318.75 L 323.73 318.76 L 323.81 318.77 L 323.89 318.78 L 323.97 318.80 L 324.05 318.83 L 324.12 318.85 L 324.12 318.85 L 324.20 318.88 L 324.27 318.91 L 324.34 318.95 L 324.41 318.99 L 324.48 319.03 L 324.55 319.08 L 324.62 319.13 L 324.68 319.18 L 324.75 319.23 L 324.81 319.29 L 324.81 319.29 L 324.87 319.35 L 324.93 319.42 L 324.99 319.48 L 325.05 319.55 L 325.11 319.62 L 325.17 319.69 L 325.22 319.77 L 325.27 319.85 L 325.32 319.93 L 325.37 320.01 L 325.37 320.01 L 325.42 320.10 L 325.46 320.18 L 325.51 320.26 L 325.54 320.35 L 325.58 320.43 L 325.61 320.52 L 325.64 320.60 L 325.67 320.69 L 325.69 320.77 L 325.71 320.86 L 325.71 320.86 L 325.73 320.94 L 325.75 321.03 L 325.76 321.11 L 325.77 321.19 L 325.78 321.27 L 325.78 321.36 L 325.78 321.44 L 325.77 321.52 L 325.76 321.60 L 325.75 321.68 L 325.75 321.68 L 325.74 321.75 L 325.72 321.83 L 325.69 321.91 L 325.67 321.98 L 325.64 322.06 L 325.61 322.13 L 325.57 322.20 L 325.53 322.28 L 325.49 322.35 L 325.44 322.42 L 325.44 322.42 L 325.39 322.48 L 325.33 322.55 L 325.27 322.61 L 325.21 322.68 L 325.14 322.74 L 325.07 322.79 L 325.00 322.85 L 324.92 322.91 L 324.84 322.96 L 324.75 323.01 ZM 324.41 322.43 L 324.41 322.43 L 324.51 322.37 L 324.60 322.30 L 324.68 322.23 L 324.74 322.16 L 324.80 322.08 L 324.85 322.00 L 324.89 321.91 L 324.92 321.82 L 324.94 321.72 L 324.95 321.62 L 324.95 321.62 L 324.95 321.52 L 324.95 321.41 L 324.93 321.30 L 324.91 321.19 L 324.88 321.08 L 324.84 320.96 L 324.79 320.84 L 324.74 320.71 L 324.68 320.59 L 324.60 320.46 L 324.60 320.46 L 324.53 320.33 L 324.45 320.21 L 324.37 320.10 L 324.29 320.00 L 324.21 319.91 L 324.12 319.82 L 324.04 319.75 L 323.95 319.68 L 323.86 319.62 L 323.77 319.58 L 323.77 319.58 L 323.68 319.54 L 323.59 319.51 L 323.49 319.49 L 323.40 319.48 L 323.30 319.48 L 323.20 319.49 L 323.10 319.51 L 323.01 319.54 L 322.90 319.59 L 322.80 319.64 L 322.80 319.64 L 322.71 319.70 L 322.62 319.77 L 322.54 319.84 L 322.47 319.91 L 322.41 319.99 L 322.36 320.07 L 322.32 320.16 L 322.29 320.25 L 322.27 320.35 L 322.26 320.45 L 322.26 320.45 L 322.26 320.55 L 322.27 320.65 L 322.28 320.76 L 322.31 320.87 L 322.34 320.99 L 322.38 321.10 L 322.42 321.22 L 322.48 321.35 L 322.54 321.47 L 322.62 321.60 L 322.62 321.60 L 322.69 321.73 L 322.77 321.85 L 322.85 321.96 L 322.93 322.06 L 323.01 322.16 L 323.10 322.24 L 323.18 322.32 L 323.27 322.38 L 323.36 322.44 L 323.44 322.49 L 323.44 322.49 L 323.54 322.53 L 323.63 322.56 L 323.72 322.58 L 323.82 322.59 L 323.92 322.59 L 324.01 322.58 L 324.11 322.56 L 324.21 322.53 L 324.31 322.48 L 324.41 322.43 Z"
     style="fill-rule: evenodd; fill: #FFFFFF; stroke-width: 0.75; stroke: none;"
     clip-path="url(#cpMTExLjU0fDQzMC41N3wzNjguMjV8MC4wMA==)"
     id="path266" />
  <path
     d="M 325.24 317.56 L 325.24 317.56 L 325.25 317.54 L 325.27 317.53 L 325.28 317.52 L 325.29 317.51 L 325.31 317.50 L 325.32 317.49 L 325.34 317.48 L 325.35 317.47 L 325.37 317.46 L 325.38 317.45 L 325.38 317.45 L 325.39 317.44 L 325.41 317.43 L 325.42 317.42 L 325.44 317.41 L 325.45 317.40 L 325.47 317.39 L 325.48 317.38 L 325.50 317.37 L 325.51 317.36 L 325.53 317.35 L 325.53 317.35 L 325.55 317.34 L 325.56 317.33 L 325.58 317.32 L 325.60 317.31 L 325.61 317.30 L 325.63 317.29 L 325.65 317.29 L 325.66 317.28 L 325.68 317.27 L 325.70 317.26 L 325.70 317.26 L 325.71 317.25 L 325.73 317.25 L 325.75 317.24 L 325.76 317.23 L 325.78 317.23 L 325.80 317.22 L 325.81 317.21 L 325.83 317.21 L 325.84 317.20 L 325.86 317.20 L 325.86 317.20 L 325.88 317.22 L 325.89 317.24 L 325.91 317.26 L 325.93 317.29 L 325.95 317.31 L 325.98 317.34 L 326.00 317.37 L 326.02 317.40 L 326.05 317.43 L 326.07 317.47 L 326.07 317.47 L 326.10 317.50 L 326.12 317.53 L 326.14 317.56 L 326.16 317.59 L 326.18 317.62 L 326.20 317.65 L 326.22 317.68 L 326.24 317.71 L 326.25 317.73 L 326.27 317.76 L 326.27 317.76 L 326.27 317.69 L 326.28 317.62 L 326.29 317.56 L 326.30 317.49 L 326.31 317.42 L 326.33 317.35 L 326.35 317.29 L 326.37 317.22 L 326.40 317.15 L 326.42 317.09 L 326.42 317.09 L 326.46 317.02 L 326.50 316.96 L 326.54 316.90 L 326.59 316.84 L 326.64 316.78 L 326.70 316.72 L 326.76 316.67 L 326.83 316.62 L 326.90 316.57 L 326.98 316.52 L 326.98 316.52 L 326.99 316.52 L 327.00 316.51 L 327.01 316.50 L 327.02 316.50 L 327.04 316.49 L 327.05 316.48 L 327.06 316.48 L 327.07 316.47 L 327.09 316.47 L 327.10 316.46 L 327.10 316.46 L 327.11 316.45 L 327.12 316.45 L 327.14 316.44 L 327.15 316.43 L 327.16 316.43 L 327.17 316.42 L 327.18 316.42 L 327.19 316.41 L 327.20 316.41 L 327.21 316.41 L 327.21 316.41 L 327.22 316.42 L 327.23 316.43 L 327.25 316.44 L 327.26 316.45 L 327.27 316.47 L 327.28 316.48 L 327.29 316.49 L 327.30 316.51 L 327.31 316.52 L 327.32 316.53 L 327.32 316.53 L 327.33 316.55 L 327.34 316.56 L 327.35 316.58 L 327.36 316.59 L 327.37 316.61 L 327.38 316.62 L 327.39 316.64 L 327.39 316.65 L 327.40 316.67 L 327.41 316.68 L 327.41 316.68 L 327.42 316.70 L 327.43 316.72 L 327.44 316.74 L 327.45 316.76 L 327.46 316.78 L 327.47 316.80 L 327.48 316.82 L 327.49 316.84 L 327.50 316.86 L 327.51 316.88 L 327.51 316.88 L 327.52 316.90 L 327.52 316.92 L 327.53 316.94 L 327.54 316.96 L 327.55 316.98 L 327.56 317.00 L 327.57 317.02 L 327.58 317.04 L 327.58 317.06 L 327.59 317.08 L 327.59 317.08 L 327.58 317.08 L 327.56 317.08 L 327.55 317.09 L 327.54 317.09 L 327.52 317.10 L 327.51 317.11 L 327.50 317.11 L 327.48 317.12 L 327.47 317.13 L 327.46 317.13 L 327.46 317.13 L 327.44 317.14 L 327.43 317.15 L 327.42 317.15 L 327.41 317.16 L 327.40 317.16 L 327.39 317.17 L 327.38 317.17 L 327.38 317.18 L 327.37 317.18 L 327.36 317.19 L 327.36 317.19 L 327.32 317.21 L 327.28 317.24 L 327.24 317.26 L 327.21 317.29 L 327.17 317.32 L 327.14 317.35 L 327.10 317.37 L 327.07 317.41 L 327.04 317.44 L 327.01 317.47 L 327.01 317.47 L 326.98 317.50 L 326.95 317.53 L 326.93 317.57 L 326.90 317.60 L 326.88 317.64 L 326.86 317.68 L 326.84 317.72 L 326.83 317.76 L 326.81 317.81 L 326.80 317.85 L 326.80 317.85 L 326.78 317.89 L 326.78 317.94 L 326.77 317.99 L 326.77 318.04 L 326.76 318.09 L 326.76 318.14 L 326.77 318.20 L 326.77 318.25 L 326.78 318.31 L 326.79 318.37 L 326.79 318.37 L 326.80 318.43 L 326.82 318.49 L 326.84 318.55 L 326.86 318.61 L 326.89 318.68 L 326.92 318.75 L 326.95 318.82 L 326.99 318.89 L 327.03 318.97 L 327.07 319.04 L 328.16 320.93 L 328.16 320.93 L 328.14 320.94 L 328.13 320.95 L 328.11 320.96 L 328.10 320.98 L 328.08 320.99 L 328.06 321.00 L 328.04 321.02 L 328.02 321.03 L 328.01 321.04 L 327.99 321.06 L 327.99 321.06 L 327.97 321.07 L 327.95 321.08 L 327.93 321.09 L 327.91 321.10 L 327.90 321.11 L 327.88 321.13 L 327.86 321.14 L 327.85 321.15 L 327.83 321.16 L 327.81 321.17 L 327.81 321.17 L 327.80 321.17 L 327.78 321.18 L 327.76 321.19 L 327.74 321.20 L 327.72 321.21 L 327.71 321.22 L 327.69 321.23 L 327.67 321.24 L 327.64 321.25 L 327.62 321.26 L 327.62 321.26 L 327.60 321.27 L 327.58 321.28 L 327.56 321.29 L 327.54 321.30 L 327.52 321.31 L 327.50 321.32 L 327.48 321.33 L 327.47 321.33 L 327.45 321.34 L 327.43 321.35 L 325.24 317.56 Z"
     style="fill-rule: evenodd; fill: #FFFFFF; stroke-width: 0.75; stroke: none;"
     clip-path="url(#cpMTExLjU0fDQzMC41N3wzNjguMjV8MC4wMA==)"
     id="path268" />
  <path
     d="M 333.90 315.98 L 331.88 317.14 L 332.22 318.58 L 332.22 318.58 L 332.21 318.59 L 332.19 318.61 L 332.17 318.62 L 332.15 318.63 L 332.13 318.65 L 332.12 318.66 L 332.10 318.67 L 332.08 318.69 L 332.06 318.70 L 332.04 318.71 L 332.04 318.71 L 332.03 318.72 L 332.01 318.74 L 331.99 318.75 L 331.97 318.76 L 331.95 318.77 L 331.93 318.79 L 331.91 318.80 L 331.89 318.81 L 331.88 318.82 L 331.86 318.83 L 331.86 318.83 L 331.84 318.84 L 331.81 318.85 L 331.79 318.87 L 331.77 318.88 L 331.75 318.89 L 331.73 318.90 L 331.71 318.91 L 331.69 318.92 L 331.67 318.93 L 331.64 318.94 L 331.64 318.94 L 331.63 318.95 L 331.61 318.96 L 331.59 318.97 L 331.57 318.98 L 331.55 318.99 L 331.53 318.99 L 331.51 319.00 L 331.49 319.01 L 331.47 319.02 L 331.45 319.02 L 330.12 312.71 L 330.12 312.71 L 330.13 312.70 L 330.15 312.68 L 330.17 312.67 L 330.19 312.65 L 330.21 312.64 L 330.23 312.62 L 330.25 312.61 L 330.27 312.60 L 330.29 312.58 L 330.31 312.57 L 330.31 312.57 L 330.33 312.55 L 330.35 312.54 L 330.38 312.53 L 330.40 312.51 L 330.42 312.50 L 330.44 312.48 L 330.47 312.47 L 330.49 312.46 L 330.51 312.44 L 330.53 312.43 L 330.53 312.43 L 330.56 312.42 L 330.58 312.40 L 330.60 312.39 L 330.62 312.38 L 330.64 312.37 L 330.66 312.36 L 330.69 312.35 L 330.71 312.33 L 330.73 312.32 L 330.75 312.31 L 330.75 312.31 L 330.78 312.30 L 330.80 312.29 L 330.82 312.28 L 330.85 312.27 L 330.87 312.26 L 330.89 312.25 L 330.91 312.24 L 330.94 312.23 L 330.96 312.22 L 330.98 312.21 L 335.77 316.53 L 335.77 316.53 L 335.76 316.54 L 335.74 316.56 L 335.72 316.57 L 335.70 316.58 L 335.69 316.60 L 335.67 316.61 L 335.65 316.63 L 335.63 316.64 L 335.61 316.65 L 335.59 316.67 L 335.59 316.67 L 335.56 316.68 L 335.54 316.70 L 335.52 316.71 L 335.50 316.72 L 335.48 316.74 L 335.46 316.75 L 335.44 316.76 L 335.42 316.77 L 335.40 316.79 L 335.37 316.80 L 335.37 316.80 L 335.36 316.81 L 335.34 316.82 L 335.32 316.83 L 335.30 316.84 L 335.28 316.85 L 335.26 316.86 L 335.23 316.88 L 335.21 316.89 L 335.19 316.90 L 335.17 316.91 L 335.17 316.91 L 335.15 316.92 L 335.13 316.93 L 335.11 316.93 L 335.09 316.94 L 335.07 316.95 L 335.05 316.96 L 335.03 316.97 L 335.01 316.98 L 334.99 316.98 L 334.97 316.99 L 333.90 315.98 ZM 331.70 316.37 L 333.32 315.44 L 330.94 313.19 L 331.70 316.37 Z"
     style="fill-rule: evenodd; fill: #FFFFFF; stroke-width: 0.75; stroke: none;"
     clip-path="url(#cpMTExLjU0fDQzMC41N3wzNjguMjV8MC4wMA==)"
     id="path270" />
  <path
     d="M 334.26 312.35 L 334.26 312.35 L 334.27 312.34 L 334.29 312.33 L 334.30 312.31 L 334.32 312.30 L 334.33 312.29 L 334.35 312.27 L 334.37 312.26 L 334.39 312.25 L 334.41 312.23 L 334.43 312.22 L 334.43 312.22 L 334.45 312.21 L 334.47 312.20 L 334.48 312.18 L 334.50 312.17 L 334.52 312.16 L 334.54 312.15 L 334.55 312.14 L 334.57 312.13 L 334.59 312.12 L 334.60 312.11 L 334.60 312.11 L 334.62 312.10 L 334.63 312.09 L 334.65 312.08 L 334.67 312.07 L 334.69 312.06 L 334.71 312.05 L 334.73 312.04 L 334.75 312.03 L 334.77 312.02 L 334.79 312.01 L 334.79 312.01 L 334.81 312.00 L 334.83 311.99 L 334.85 311.98 L 334.87 311.97 L 334.89 311.96 L 334.91 311.96 L 334.93 311.95 L 334.95 311.94 L 334.97 311.93 L 334.99 311.93 L 336.19 314.00 L 336.19 314.00 L 336.23 314.07 L 336.27 314.14 L 336.31 314.20 L 336.35 314.26 L 336.39 314.32 L 336.43 314.37 L 336.47 314.42 L 336.51 314.47 L 336.55 314.52 L 336.59 314.56 L 336.59 314.56 L 336.63 314.59 L 336.67 314.63 L 336.71 314.66 L 336.75 314.69 L 336.80 314.71 L 336.84 314.74 L 336.88 314.76 L 336.92 314.78 L 336.96 314.79 L 337.00 314.80 L 337.00 314.80 L 337.04 314.81 L 337.09 314.82 L 337.13 314.83 L 337.17 314.83 L 337.22 314.83 L 337.26 314.83 L 337.30 314.83 L 337.35 314.82 L 337.39 314.81 L 337.43 314.80 L 337.43 314.80 L 337.48 314.79 L 337.52 314.77 L 337.57 314.76 L 337.62 314.74 L 337.66 314.72 L 337.71 314.70 L 337.76 314.68 L 337.81 314.65 L 337.86 314.63 L 337.91 314.60 L 337.91 314.60 L 337.98 314.55 L 338.05 314.51 L 338.12 314.47 L 338.18 314.42 L 338.25 314.38 L 338.30 314.33 L 338.36 314.28 L 338.41 314.24 L 338.46 314.19 L 338.50 314.14 L 336.66 310.96 L 336.66 310.96 L 336.68 310.95 L 336.69 310.93 L 336.71 310.92 L 336.73 310.91 L 336.74 310.90 L 336.76 310.88 L 336.78 310.87 L 336.79 310.86 L 336.81 310.85 L 336.83 310.83 L 336.83 310.83 L 336.85 310.82 L 336.87 310.81 L 336.89 310.80 L 336.91 310.78 L 336.92 310.77 L 336.94 310.76 L 336.96 310.75 L 336.98 310.74 L 336.99 310.73 L 337.01 310.72 L 337.01 310.72 L 337.03 310.71 L 337.04 310.70 L 337.06 310.69 L 337.08 310.68 L 337.10 310.67 L 337.11 310.66 L 337.13 310.65 L 337.15 310.64 L 337.17 310.63 L 337.19 310.62 L 337.19 310.62 L 337.21 310.61 L 337.23 310.60 L 337.25 310.60 L 337.28 310.59 L 337.30 310.58 L 337.31 310.57 L 337.33 310.56 L 337.35 310.55 L 337.37 310.55 L 337.39 310.54 L 339.51 314.21 L 339.51 314.21 L 339.47 314.26 L 339.42 314.31 L 339.37 314.35 L 339.32 314.40 L 339.27 314.45 L 339.21 314.50 L 339.16 314.55 L 339.10 314.61 L 339.03 314.66 L 338.97 314.71 L 338.97 314.71 L 338.91 314.77 L 338.84 314.82 L 338.77 314.87 L 338.71 314.92 L 338.64 314.97 L 338.57 315.02 L 338.49 315.07 L 338.42 315.12 L 338.35 315.16 L 338.27 315.21 L 338.27 315.21 L 338.20 315.25 L 338.12 315.29 L 338.05 315.32 L 337.98 315.36 L 337.91 315.39 L 337.83 315.43 L 337.76 315.46 L 337.69 315.49 L 337.62 315.51 L 337.54 315.54 L 337.54 315.54 L 337.47 315.56 L 337.40 315.58 L 337.33 315.60 L 337.26 315.61 L 337.19 315.62 L 337.12 315.62 L 337.05 315.63 L 336.98 315.62 L 336.91 315.62 L 336.84 315.61 L 336.84 315.61 L 336.77 315.60 L 336.70 315.58 L 336.63 315.56 L 336.56 315.53 L 336.49 315.50 L 336.42 315.47 L 336.35 315.43 L 336.28 315.39 L 336.21 315.34 L 336.14 315.29 L 336.14 315.29 L 336.07 315.24 L 336.01 315.17 L 335.94 315.11 L 335.87 315.03 L 335.80 314.95 L 335.74 314.86 L 335.67 314.77 L 335.60 314.67 L 335.54 314.57 L 335.47 314.46 L 334.26 312.35 Z"
     style="fill-rule: evenodd; fill: #FFFFFF; stroke-width: 0.75; stroke: none;"
     clip-path="url(#cpMTExLjU0fDQzMC41N3wzNjguMjV8MC4wMA==)"
     id="path272" />
  <path
     d="M 340.04 306.84 L 340.04 306.84 L 340.05 306.83 L 340.07 306.82 L 340.08 306.81 L 340.10 306.79 L 340.12 306.78 L 340.13 306.77 L 340.15 306.76 L 340.17 306.74 L 340.19 306.73 L 340.21 306.72 L 340.21 306.72 L 340.23 306.70 L 340.25 306.69 L 340.26 306.68 L 340.28 306.67 L 340.30 306.65 L 340.32 306.64 L 340.33 306.63 L 340.35 306.62 L 340.37 306.61 L 340.38 306.61 L 340.38 306.61 L 340.40 306.60 L 340.41 306.59 L 340.43 306.58 L 340.45 306.57 L 340.47 306.56 L 340.49 306.55 L 340.50 306.54 L 340.52 306.53 L 340.54 306.52 L 340.56 306.51 L 340.56 306.51 L 340.58 306.50 L 340.60 306.49 L 340.63 306.48 L 340.65 306.47 L 340.67 306.46 L 340.69 306.45 L 340.70 306.45 L 340.72 306.44 L 340.74 306.43 L 340.76 306.43 L 343.83 311.74 L 343.83 311.74 L 343.78 311.79 L 343.73 311.84 L 343.68 311.89 L 343.63 311.94 L 343.57 311.99 L 343.52 312.04 L 343.46 312.09 L 343.40 312.14 L 343.34 312.19 L 343.28 312.24 L 343.28 312.24 L 343.21 312.29 L 343.15 312.34 L 343.08 312.39 L 343.01 312.44 L 342.94 312.49 L 342.86 312.54 L 342.78 312.59 L 342.70 312.64 L 342.62 312.69 L 342.54 312.74 L 342.54 312.74 L 342.46 312.79 L 342.37 312.83 L 342.29 312.87 L 342.21 312.91 L 342.13 312.95 L 342.05 312.98 L 341.97 313.01 L 341.88 313.04 L 341.80 313.06 L 341.72 313.09 L 341.72 313.09 L 341.64 313.11 L 341.55 313.12 L 341.47 313.13 L 341.39 313.14 L 341.31 313.14 L 341.23 313.15 L 341.15 313.14 L 341.07 313.14 L 340.99 313.13 L 340.91 313.11 L 340.91 313.11 L 340.83 313.10 L 340.75 313.08 L 340.67 313.05 L 340.59 313.02 L 340.52 312.99 L 340.44 312.95 L 340.36 312.91 L 340.29 312.87 L 340.22 312.82 L 340.14 312.77 L 340.14 312.77 L 340.07 312.71 L 340.00 312.65 L 339.93 312.58 L 339.86 312.51 L 339.79 312.43 L 339.73 312.34 L 339.66 312.26 L 339.60 312.16 L 339.53 312.06 L 339.47 311.96 L 339.47 311.96 L 339.42 311.87 L 339.37 311.78 L 339.33 311.69 L 339.29 311.59 L 339.25 311.50 L 339.22 311.41 L 339.19 311.32 L 339.16 311.23 L 339.14 311.14 L 339.12 311.05 L 339.12 311.05 L 339.11 310.96 L 339.10 310.87 L 339.09 310.78 L 339.09 310.69 L 339.09 310.60 L 339.09 310.52 L 339.10 310.43 L 339.11 310.35 L 339.12 310.26 L 339.14 310.18 L 339.14 310.18 L 339.16 310.10 L 339.19 310.01 L 339.21 309.93 L 339.24 309.86 L 339.28 309.78 L 339.31 309.70 L 339.36 309.63 L 339.40 309.55 L 339.45 309.48 L 339.50 309.41 L 339.50 309.41 L 339.55 309.34 L 339.61 309.28 L 339.67 309.21 L 339.74 309.15 L 339.81 309.09 L 339.88 309.03 L 339.95 308.97 L 340.03 308.91 L 340.11 308.86 L 340.20 308.81 L 340.20 308.81 L 340.23 308.79 L 340.27 308.77 L 340.31 308.75 L 340.35 308.73 L 340.39 308.71 L 340.43 308.69 L 340.47 308.67 L 340.51 308.65 L 340.56 308.64 L 340.60 308.62 L 340.60 308.62 L 340.64 308.60 L 340.68 308.59 L 340.72 308.57 L 340.76 308.56 L 340.80 308.54 L 340.84 308.53 L 340.88 308.52 L 340.92 308.51 L 340.95 308.50 L 340.99 308.49 L 340.04 306.84 ZM 341.35 309.11 L 341.35 309.11 L 341.31 309.12 L 341.27 309.13 L 341.24 309.13 L 341.20 309.14 L 341.16 309.15 L 341.13 309.16 L 341.09 309.17 L 341.05 309.18 L 341.01 309.20 L 340.98 309.21 L 340.98 309.21 L 340.94 309.22 L 340.90 309.24 L 340.86 309.25 L 340.83 309.27 L 340.79 309.29 L 340.75 309.31 L 340.71 309.33 L 340.67 309.35 L 340.63 309.37 L 340.59 309.39 L 340.59 309.39 L 340.53 309.43 L 340.47 309.46 L 340.42 309.50 L 340.37 309.54 L 340.32 309.58 L 340.28 309.63 L 340.24 309.67 L 340.20 309.71 L 340.16 309.76 L 340.13 309.81 L 340.13 309.81 L 340.10 309.85 L 340.07 309.90 L 340.05 309.95 L 340.02 310.00 L 340.00 310.05 L 339.98 310.11 L 339.97 310.16 L 339.95 310.21 L 339.94 310.27 L 339.93 310.32 L 339.93 310.32 L 339.93 310.38 L 339.93 310.43 L 339.93 310.49 L 339.93 310.55 L 339.93 310.60 L 339.94 310.66 L 339.95 310.72 L 339.96 310.78 L 339.97 310.84 L 339.98 310.90 L 339.98 310.90 L 340.00 310.96 L 340.02 311.02 L 340.04 311.08 L 340.07 311.14 L 340.09 311.21 L 340.12 311.27 L 340.15 311.33 L 340.18 311.39 L 340.21 311.45 L 340.25 311.51 L 340.25 311.51 L 340.33 311.65 L 340.42 311.77 L 340.50 311.88 L 340.59 311.98 L 340.68 312.06 L 340.77 312.14 L 340.87 312.20 L 340.96 312.26 L 341.06 312.30 L 341.16 312.33 L 341.16 312.33 L 341.26 312.34 L 341.36 312.35 L 341.47 312.36 L 341.57 312.35 L 341.68 312.33 L 341.78 312.31 L 341.89 312.27 L 342.00 312.23 L 342.11 312.18 L 342.22 312.12 L 342.22 312.12 L 342.26 312.09 L 342.30 312.07 L 342.33 312.05 L 342.37 312.03 L 342.40 312.01 L 342.44 311.98 L 342.47 311.96 L 342.51 311.94 L 342.54 311.92 L 342.57 311.90 L 342.57 311.90 L 342.60 311.87 L 342.63 311.85 L 342.65 311.83 L 342.68 311.81 L 342.71 311.78 L 342.73 311.76 L 342.76 311.74 L 342.78 311.72 L 342.80 311.69 L 342.82 311.67 L 341.35 309.11 Z"
     style="fill-rule: evenodd; fill: #FFFFFF; stroke-width: 0.75; stroke: none;"
     clip-path="url(#cpMTExLjU0fDQzMC41N3wzNjguMjV8MC4wMA==)"
     id="path274" />
  <path
     d="M 343.43 307.82 L 342.95 308.10 L 342.95 308.10 L 342.94 308.09 L 342.93 308.08 L 342.92 308.07 L 342.91 308.06 L 342.90 308.04 L 342.89 308.03 L 342.88 308.02 L 342.87 308.01 L 342.86 307.99 L 342.85 307.98 L 342.85 307.98 L 342.84 307.96 L 342.83 307.95 L 342.82 307.93 L 342.81 307.92 L 342.80 307.90 L 342.79 307.89 L 342.78 307.87 L 342.77 307.86 L 342.76 307.84 L 342.75 307.83 L 342.75 307.83 L 342.74 307.81 L 342.74 307.80 L 342.73 307.78 L 342.72 307.77 L 342.71 307.75 L 342.70 307.74 L 342.70 307.72 L 342.69 307.71 L 342.68 307.69 L 342.67 307.68 L 342.67 307.68 L 342.67 307.66 L 342.66 307.64 L 342.65 307.63 L 342.65 307.61 L 342.64 307.60 L 342.63 307.58 L 342.63 307.57 L 342.62 307.55 L 342.62 307.54 L 342.62 307.52 L 343.81 306.83 L 346.00 310.62 L 346.00 310.62 L 345.99 310.64 L 345.97 310.65 L 345.96 310.66 L 345.94 310.67 L 345.92 310.69 L 345.91 310.70 L 345.89 310.71 L 345.87 310.73 L 345.85 310.74 L 345.83 310.75 L 345.83 310.75 L 345.81 310.77 L 345.79 310.78 L 345.78 310.79 L 345.76 310.80 L 345.74 310.81 L 345.72 310.82 L 345.71 310.83 L 345.69 310.84 L 345.67 310.85 L 345.66 310.86 L 345.66 310.86 L 345.64 310.87 L 345.63 310.88 L 345.61 310.89 L 345.59 310.90 L 345.58 310.91 L 345.56 310.92 L 345.54 310.93 L 345.52 310.94 L 345.50 310.95 L 345.48 310.96 L 345.48 310.96 L 345.46 310.97 L 345.44 310.98 L 345.42 310.98 L 345.40 310.99 L 345.38 311.00 L 345.36 311.01 L 345.34 311.02 L 345.32 311.02 L 345.30 311.03 L 345.29 311.04 L 343.43 307.82 ZM 342.45 306.50 L 342.45 306.50 L 342.44 306.49 L 342.42 306.47 L 342.41 306.45 L 342.40 306.44 L 342.39 306.42 L 342.37 306.40 L 342.36 306.38 L 342.34 306.36 L 342.33 306.34 L 342.32 306.32 L 342.32 306.32 L 342.31 306.30 L 342.29 306.28 L 342.28 306.26 L 342.27 306.25 L 342.26 306.23 L 342.25 306.21 L 342.24 306.19 L 342.23 306.17 L 342.22 306.16 L 342.21 306.14 L 342.21 306.14 L 342.20 306.12 L 342.19 306.11 L 342.18 306.09 L 342.17 306.07 L 342.16 306.05 L 342.15 306.03 L 342.14 306.02 L 342.13 306.00 L 342.12 305.98 L 342.10 305.96 L 342.10 305.96 L 342.09 305.93 L 342.08 305.91 L 342.08 305.89 L 342.07 305.87 L 342.06 305.85 L 342.05 305.83 L 342.04 305.81 L 342.03 305.79 L 342.03 305.78 L 342.02 305.76 L 342.02 305.76 L 342.04 305.74 L 342.06 305.73 L 342.07 305.72 L 342.09 305.70 L 342.11 305.69 L 342.13 305.67 L 342.15 305.66 L 342.17 305.64 L 342.19 305.63 L 342.21 305.62 L 342.21 305.62 L 342.24 305.60 L 342.26 305.59 L 342.28 305.58 L 342.30 305.56 L 342.31 305.55 L 342.33 305.54 L 342.35 305.53 L 342.37 305.52 L 342.39 305.51 L 342.40 305.50 L 342.40 305.50 L 342.42 305.49 L 342.44 305.48 L 342.45 305.47 L 342.47 305.46 L 342.49 305.45 L 342.51 305.44 L 342.53 305.43 L 342.55 305.42 L 342.58 305.41 L 342.60 305.39 L 342.60 305.39 L 342.62 305.38 L 342.64 305.37 L 342.67 305.36 L 342.69 305.35 L 342.71 305.34 L 342.73 305.33 L 342.75 305.32 L 342.77 305.32 L 342.79 305.31 L 342.81 305.30 L 342.81 305.30 L 342.82 305.32 L 342.84 305.33 L 342.85 305.35 L 342.86 305.36 L 342.87 305.38 L 342.88 305.40 L 342.90 305.42 L 342.91 305.44 L 342.92 305.46 L 342.93 305.48 L 342.93 305.48 L 342.95 305.50 L 342.96 305.52 L 342.97 305.54 L 342.98 305.55 L 342.99 305.57 L 343.01 305.59 L 343.02 305.61 L 343.03 305.62 L 343.04 305.64 L 343.05 305.66 L 343.05 305.66 L 343.06 305.67 L 343.07 305.69 L 343.08 305.71 L 343.09 305.73 L 343.10 305.75 L 343.11 305.76 L 343.12 305.78 L 343.13 305.80 L 343.14 305.83 L 343.15 305.85 L 343.15 305.85 L 343.16 305.87 L 343.17 305.89 L 343.18 305.91 L 343.19 305.93 L 343.20 305.95 L 343.21 305.97 L 343.22 305.99 L 343.23 306.01 L 343.23 306.03 L 343.24 306.05 L 343.24 306.05 L 343.23 306.06 L 343.21 306.07 L 343.19 306.09 L 343.17 306.10 L 343.16 306.11 L 343.14 306.13 L 343.12 306.14 L 343.10 306.16 L 343.08 306.17 L 343.06 306.18 L 343.06 306.18 L 343.04 306.20 L 343.02 306.21 L 343.00 306.22 L 342.98 306.24 L 342.96 306.25 L 342.94 306.26 L 342.93 306.27 L 342.91 306.28 L 342.89 306.29 L 342.87 306.30 L 342.87 306.30 L 342.86 306.31 L 342.84 306.32 L 342.82 306.33 L 342.80 306.34 L 342.78 306.35 L 342.76 306.36 L 342.74 306.37 L 342.72 306.38 L 342.69 306.40 L 342.67 306.41 L 342.67 306.41 L 342.65 306.42 L 342.63 306.43 L 342.60 306.44 L 342.58 306.45 L 342.56 306.46 L 342.54 306.47 L 342.52 306.48 L 342.49 306.49 L 342.47 306.50 L 342.45 306.50 Z"
     style="fill-rule: evenodd; fill: #FFFFFF; stroke-width: 0.75; stroke: none;"
     clip-path="url(#cpMTExLjU0fDQzMC41N3wzNjguMjV8MC4wMA==)"
     id="path276" />
  <path
     d="M 345.48 306.65 L 344.90 306.98 L 344.82 306.89 L 345.27 304.74 L 345.33 304.71 L 345.87 305.65 L 346.83 305.09 L 346.83 305.09 L 346.85 305.11 L 346.87 305.14 L 346.89 305.16 L 346.91 305.18 L 346.93 305.21 L 346.95 305.24 L 346.97 305.27 L 346.98 305.29 L 347.00 305.32 L 347.02 305.35 L 347.02 305.35 L 347.03 305.37 L 347.04 305.39 L 347.05 305.40 L 347.06 305.42 L 347.07 305.43 L 347.07 305.45 L 347.08 305.47 L 347.09 305.48 L 347.10 305.50 L 347.10 305.51 L 347.10 305.51 L 347.11 305.53 L 347.12 305.55 L 347.12 305.56 L 347.13 305.58 L 347.14 305.59 L 347.14 305.61 L 347.15 305.63 L 347.15 305.64 L 347.16 305.66 L 347.17 305.67 L 346.21 306.23 L 347.20 307.96 L 347.20 307.96 L 347.24 308.02 L 347.27 308.08 L 347.31 308.13 L 347.34 308.19 L 347.37 308.23 L 347.40 308.28 L 347.43 308.33 L 347.46 308.37 L 347.49 308.41 L 347.51 308.44 L 347.51 308.44 L 347.54 308.47 L 347.57 308.50 L 347.59 308.53 L 347.62 308.56 L 347.64 308.58 L 347.67 308.61 L 347.69 308.63 L 347.72 308.65 L 347.74 308.66 L 347.77 308.68 L 347.77 308.68 L 347.79 308.69 L 347.82 308.70 L 347.84 308.71 L 347.87 308.71 L 347.89 308.72 L 347.91 308.72 L 347.94 308.72 L 347.96 308.72 L 347.99 308.72 L 348.01 308.71 L 348.01 308.71 L 348.04 308.71 L 348.07 308.70 L 348.09 308.69 L 348.12 308.68 L 348.15 308.66 L 348.18 308.65 L 348.21 308.64 L 348.24 308.62 L 348.27 308.60 L 348.30 308.59 L 348.30 308.59 L 348.33 308.57 L 348.35 308.56 L 348.38 308.54 L 348.40 308.53 L 348.42 308.51 L 348.45 308.50 L 348.47 308.48 L 348.49 308.46 L 348.51 308.45 L 348.53 308.43 L 348.53 308.43 L 348.55 308.42 L 348.57 308.40 L 348.59 308.38 L 348.61 308.37 L 348.63 308.35 L 348.64 308.33 L 348.66 308.32 L 348.68 308.30 L 348.69 308.29 L 348.71 308.27 L 348.71 308.27 L 348.73 308.30 L 348.76 308.32 L 348.79 308.35 L 348.81 308.37 L 348.83 308.40 L 348.86 308.43 L 348.88 308.46 L 348.90 308.48 L 348.92 308.51 L 348.94 308.54 L 348.94 308.54 L 348.96 308.57 L 348.98 308.60 L 349.00 308.63 L 349.02 308.66 L 349.04 308.68 L 349.05 308.71 L 349.07 308.73 L 349.08 308.76 L 349.10 308.78 L 349.11 308.81 L 349.11 308.81 L 349.09 308.83 L 349.06 308.86 L 349.04 308.88 L 349.01 308.90 L 348.98 308.93 L 348.95 308.95 L 348.92 308.97 L 348.89 308.99 L 348.86 309.02 L 348.83 309.04 L 348.83 309.04 L 348.80 309.06 L 348.77 309.09 L 348.74 309.11 L 348.71 309.13 L 348.67 309.15 L 348.64 309.17 L 348.61 309.20 L 348.57 309.22 L 348.54 309.24 L 348.50 309.26 L 348.50 309.26 L 348.39 309.32 L 348.29 309.37 L 348.19 309.41 L 348.09 309.45 L 347.99 309.47 L 347.89 309.49 L 347.79 309.50 L 347.70 309.50 L 347.61 309.50 L 347.51 309.49 L 347.51 309.49 L 347.43 309.46 L 347.34 309.43 L 347.26 309.39 L 347.17 309.33 L 347.09 309.27 L 347.02 309.20 L 346.94 309.11 L 346.87 309.02 L 346.79 308.91 L 346.72 308.80 L 345.48 306.65 Z"
     style="fill-rule: evenodd; fill: #FFFFFF; stroke-width: 0.75; stroke: none;"
     clip-path="url(#cpMTExLjU0fDQzMC41N3wzNjguMjV8MC4wMA==)"
     id="path278" />
  <defs
     id="defs284">
    <clipPath
       id="clipPath282">
      <rect
         x="0.00"
         y="0.00"
         width="542.25"
         height="368.25"
         id="rect280" />
    </clipPath>
  </defs>
  <path
     style="fill:none;stroke:#000000;stroke-width:31.36193466;stroke-linecap:round;stroke-linejoin:miter;stroke-miterlimit:4;stroke-dasharray:none;stroke-opacity:1"
     d="m 215.63472,200.56322 c -55.10389,62.44992 -56.18437,63.47367 -56.18437,63.47367"
     id="path4531"
     inkscape:connector-curvature="0" />
  <path
     inkscape:connector-curvature="0"
     style="opacity:1;fill:url(#linearGradient1454);fill-opacity:1;stroke:#000000;stroke-width:0.27423066;stroke-linecap:round;stroke-linejoin:round;stroke-miterlimit:10"
     d="m 345.0371,141.13195 c 0,35.99 -33.86048,65.16484 -75.63076,65.16484 -41.77028,0 -75.63077,-29.17484 -75.63077,-65.16484 0,-35.99003 33.86049,-65.164858 75.63077,-65.164858 41.77028,0 75.63076,29.174828 75.63076,65.164858 z m 0,0"
     id="path948-0" />
  <path
     style="fill:#fffff0;fill-opacity:1;stroke:#000000;stroke-width:0.16489395;stroke-linecap:round;stroke-linejoin:round;stroke-miterlimit:10"
     inkscape:connector-curvature="0"
     d="m 303.45517,165.06914 c -3.52607,-6.44128 -6.00648,-15.29325 -8.40529,-23.85427 -2.33688,-8.33898 -4.7539,-16.96208 -8.18233,-23.41017 -1.96016,-3.68723 -4.11486,-6.43729 -6.58581,-8.40729 -3.08303,-2.45739 -6.67544,-3.70374 -10.67733,-3.70374 -3.98223,0 -7.54984,1.23383 -10.60299,3.66787 -2.44762,1.95122 -4.57319,4.67507 -6.49837,8.32643 -3.36285,6.38035 -5.60645,14.55022 -7.98121,23.20065 -2.36748,8.62535 -4.81584,17.54394 -8.37981,24.0507 -2.94677,5.3811 -5.92051,7.77131 -8.5095,8.80414 v -68.04979 h -7.46167 v 74.62826 h 95.50937 v -5.83031 c -3.03423,0 -7.60232,-0.97649 -12.22506,-9.42248 z m -51.63708,-22.95809 c 2.30192,-8.38623 4.47701,-16.30729 7.58482,-22.20253 3.96185,-7.51511 7.71962,-8.38452 10.2015,-8.38452 2.50811,0 6.31326,0.88308 10.37274,8.51776 3.17267,5.96696 5.51683,14.33156 7.78376,22.4206 2.47312,8.8252 5.03078,17.95105 8.83375,24.89904 1.58271,2.89184 3.28781,5.24504 5.16853,7.13022 h -64.06396 c 1.93828,-1.9148 3.68783,-4.31013 5.30331,-7.2589 3.84743,-7.02486 6.37303,-16.22472 8.81555,-25.12167 z m 0,0"
     id="path2" />
  <path
     style="fill:#ffffff;fill-opacity:0.10869565;stroke:#f9883c;stroke-width:0;stroke-linecap:butt;stroke-linejoin:round;stroke-miterlimit:10;stroke-dasharray:none;stroke-opacity:1;paint-order:normal"
     id="path831"
     sodipodi:type="arc"
     sodipodi:cx="101.66805"
     sodipodi:cy="264.84286"
     sodipodi:rx="80.481674"
     sodipodi:ry="80.833138"
     sodipodi:start="6.2273048"
     sodipodi:end="2.8069833"
     d="M 182.0241,260.32822 A 80.481674,80.833138 0 0 1 117.28205,344.14019 80.481674,80.833138 0 0 1 25.649999,291.38848"
     sodipodi:open="true"
     transform="matrix(0.7917961,-0.61078551,0.67032549,0.74206721,0,0)" />
  <ellipse
     style="fill:#ffffff;fill-opacity:0.10869565;stroke:#f9883c;stroke-width:21.96372604;stroke-miterlimit:4;stroke-dasharray:none;stroke-opacity:1"
     id="path4526"
     cx="266.69089"
     cy="142.91473"
     rx="78.599037"
     ry="70.130157" />
</svg>
