<?xml version="1.0" encoding="UTF-8" standalone="no"?>
<!-- Generator: Adobe Illustrator 22.0.1, SVG Export Plug-In . SVG Version: 6.00 Build 0)  -->

<svg
   xmlns:dc="http://purl.org/dc/elements/1.1/"
   xmlns:cc="http://creativecommons.org/ns#"
   xmlns:rdf="http://www.w3.org/1999/02/22-rdf-syntax-ns#"
   xmlns:svg="http://www.w3.org/2000/svg"
   xmlns="http://www.w3.org/2000/svg"
   xmlns:xlink="http://www.w3.org/1999/xlink"
   xmlns:sodipodi="http://sodipodi.sourceforge.net/DTD/sodipodi-0.dtd"
   xmlns:inkscape="http://www.inkscape.org/namespaces/inkscape"
   version="1.1"
   id="Layer_1"
   x="0px"
   y="0px"
   viewBox="0 0 735 852"
   style="enable-background:new 0 0 735 852;"
   xml:space="preserve"
   sodipodi:docname="logo.svg"
   inkscape:version="0.92.3 (2405546, 2018-03-11)"
   inkscape:export-filename="C:\Users\derksk\OneDrive - Nyenrode Business Universiteit\Desktop\jfa\logo\logo.png"
   inkscape:export-xdpi="887"
   inkscape:export-ydpi="887"><metadata
   id="metadata1009"><rdf:RDF><cc:Work
       rdf:about=""><dc:format>image/svg+xml</dc:format><dc:type
         rdf:resource="http://purl.org/dc/dcmitype/StillImage" /></cc:Work></rdf:RDF></metadata><defs
   id="defs1007"><linearGradient
     inkscape:collect="always"
     id="linearGradient1074"><stop
       style="stop-color:#800080;stop-opacity:1;"
       offset="0"
       id="stop1070" /><stop
       id="stop1154"
       offset="0.05351847"
       style="stop-color:#800080;stop-opacity:0.94509804;" /><stop
       style="stop-color:#800080;stop-opacity:0;"
       offset="1"
       id="stop1072" /></linearGradient><linearGradient
     gradientTransform="matrix(0.4699597,0,0,0.45012552,249.659,181.59315)"
     id="a"
     gradientUnits="userSpaceOnUse"
     x1="0"
     x2="512"
     y1="256"
     y2="256"><stop
       offset="0"
       stop-color="#00f1ff"
       id="stop937-1" /><stop
       offset=".231"
       stop-color="#00d8ff"
       id="stop939" /><stop
       offset=".5138"
       stop-color="#00c0ff"
       id="stop941" /><stop
       offset=".7773"
       stop-color="#00b2ff"
       id="stop943" /><stop
       offset="1"
       stop-color="#00adff"
       id="stop945" /></linearGradient><linearGradient
     inkscape:collect="always"
     xlink:href="#a"
     id="linearGradient1036"
     x1="246.8325"
     y1="296.82529"
     x2="493.10486"
     y2="296.82529"
     gradientUnits="userSpaceOnUse" /><linearGradient
     inkscape:collect="always"
     xlink:href="#linearGradient1074"
     id="linearGradient1076"
     x1="263.16315"
     y1="295.37006"
     x2="713.73035"
     y2="198.07945"
     gradientUnits="userSpaceOnUse"
     gradientTransform="matrix(0.94365836,0,0,0.92387454,21.243376,23.393441)" /></defs><sodipodi:namedview
   pagecolor="#ffffff"
   bordercolor="#666666"
   borderopacity="1"
   objecttolerance="10"
   gridtolerance="10"
   guidetolerance="10"
   inkscape:pageopacity="0"
   inkscape:pageshadow="2"
   inkscape:window-width="1920"
   inkscape:window-height="1001"
   id="namedview1005"
   showgrid="false"
   inkscape:zoom="1.253975"
   inkscape:cx="342.05746"
   inkscape:cy="513.4859"
   inkscape:window-x="-9"
   inkscape:window-y="-9"
   inkscape:window-maximized="1"
   inkscape:current-layer="Layer_1" />
<style
   type="text/css"
   id="style927">
	.st0{fill:#428BCA;}
	.st1{opacity:0.25;fill:url(#SVGID_1_);enable-background:new    ;}
	.st2{fill:#3674A8;}
	.st3{fill:#E6B35A;}
	.st4{fill:#FFFFFF;}
	.st5{opacity:0.9;}
	.st6{opacity:0.9;fill:#FFFFFF;enable-background:new    ;}
	.st7{fill:none;}
</style>
<title
   id="title929">roxygen2</title>
<path
   class="st0"
   d="M714.3,226.4L366.9,23L20.7,226.4v400.4L367.5,827l346.8-200.2V226.4z"
   id="path931"
   style="fill:#9060bb;fill-opacity:1" />
<linearGradient
   id="SVGID_1_"
   gradientUnits="userSpaceOnUse"
   x1="366.1475"
   y1="-180.69"
   x2="367.4375"
   y2="282.84"
   gradientTransform="matrix(1 0 0 1 0 60)">
	<stop
   offset="0"
   style="stop-color:#FFFFFF;stop-opacity:0.83"
   id="stop933" />
	<stop
   offset="0.56"
   style="stop-color:#FFFFFF;stop-opacity:0.37"
   id="stop935" />
	<stop
   offset="1"
   style="stop-color:#FFFFFF;stop-opacity:0"
   id="stop937" />
</linearGradient>
<path
   class="st1"
   d="M366.9,342.1c128.2,0,238.6-57,287.8-138.8L367.5,37.5l0,0L79.4,203.9C128.8,285.4,238.9,342.1,366.9,342.1z"
   id="path940" />
<path
   class="st2"
   d="M734.9,639.1V214.8l-29.3-16.9L427.8,37.5L367.5,2.7l-60.3,34.8L29.4,197.9L0.1,214.8V639l29.3,17l281.3,162.4  l56.9,32.8l56.9-32.8L705.6,656L734.9,639.1z M29.4,623.2V232.7l50-28.9L367.5,37.5l0,0l287.2,165.8l50.9,29.4v390.4L367.5,818.4  L29.4,623.2z"
   id="path942"
   style="fill:#800080;fill-opacity:1" />
<path
   class="st3"
   d="M182.4,633.9c0.3-0.3,0.6-0.6,0.9-0.9h-0.2L182.4,633.9z"
   id="path944" />
<path
   class="st4"
   d="M365.5,798l4.5,4.5c1,1,1.9,1.9,2.7,2.9h0.1c-0.4-1.2-0.7-2.5-1-3.8l-1.4-6.3l1.6-0.9l4.7,4.3  c1.1,1,2.1,2,2.9,2.9h0.1c-0.5-1.3-0.9-2.6-1.2-3.9l-1.6-6.1l1.9-1.1l2.7,12.4l-1.7,1l-4.5-4.1c-1-1-2-1.8-2.9-2.9l0,0  c0.4,1.3,0.8,2.6,1.1,4l1.2,6l-1.7,1l-9.2-8.6L365.5,798z"
   id="path946" />
<path
   class="st4"
   d="M381.7,788.6l4.5,4.5c1,1,1.9,1.9,2.7,2.9h0.1c-0.4-1.2-0.7-2.5-1-3.8l-1.4-6.3l1.6-0.9l4.7,4.3  c1.1,1,2.1,2,2.9,2.9h0.1c-0.5-1.3-0.9-2.5-1.2-3.8L393,782l1.9-1.1l2.7,12.4l-1.7,1l-4.5-4.1c-1-0.9-2-1.9-2.9-2.9l0,0  c0.4,1.3,0.8,2.6,1.1,4l1.2,6l-1.7,1l-9.2-8.6L381.7,788.6z"
   id="path948" />
<path
   class="st4"
   d="M397.8,779.2l4.5,4.5c1,1,1.9,1.9,2.7,2.9h0.1c-0.4-1.2-0.7-2.5-1-3.8l-1.4-6.3l1.6-0.9l4.7,4.3  c1.1,1,2.1,2,2.9,2.9h0.1c-0.5-1.3-0.9-2.5-1.2-3.8l-1.6-6.1l1.9-1.1l2.7,12.4l-1.7,1l-4.5-4.1c-1-0.9-2-1.9-2.9-2.9l0,0  c0.4,1.3,0.8,2.6,1.1,4l1.2,6l-1.7,1l-9.2-8.6L397.8,779.2z"
   id="path950" />
<path
   class="st4"
   d="M417.1,780.5c-0.5-0.7-0.3-1.6,0.4-2c0,0,0.1,0,0.1-0.1c0.8-0.4,1.7-0.2,2.1,0.6s0.2,1.7-0.6,2.1l0,0  C418.4,781.5,417.5,781.3,417.1,780.5C417.2,780.6,417.1,780.5,417.1,780.5z"
   id="path952" />
<path
   class="st4"
   d="M418.5,771.5c-0.7-1.2-1.4-2.3-2-3.2l1.7-1l1.3,2h0.1c-0.4-1.5,0.2-3.2,1.6-4c0.2-0.1,0.4-0.2,0.6-0.2l1,1.8  c-0.2,0.1-0.5,0.2-0.7,0.3c-1.3,0.8-1.8,2.5-1.1,3.9c0.1,0.3,0.3,0.6,0.4,0.9l3.2,5.6l-1.9,1.1L418.5,771.5z"
   id="path954" />
<path
   class="st4"
   d="M428.4,772.8c1,0,2-0.2,2.9-0.7c1.4-0.8,1.6-1.9,1.1-2.7s-1.4-1.1-3.1-0.8c-2.3,0.4-3.8-0.1-4.5-1.3  c-1-1.7-0.4-3.9,1.8-5.2c0.9-0.5,1.9-0.8,2.9-0.8l0.3,1.7c-0.9,0-1.7,0.2-2.5,0.6c-0.9,0.4-1.3,1.4-1,2.3c0,0,0,0.1,0.1,0.1  c0.5,0.9,1.4,0.9,3,0.6c2.2-0.4,3.7,0,4.6,1.6c1.1,1.8,0.4,4-2.1,5.4c-1,0.6-2.2,1-3.4,1L428.4,772.8z"
   id="path956" />
<path
   class="st4"
   d="M432.8,754.8l1.7,3l2.7-1.6l0.9,1.5l-2.7,1.6l3.3,5.6c0.8,1.3,1.5,1.8,2.6,1.2c0.4-0.2,0.7-0.5,1-0.8l0.9,1.4  c-0.4,0.5-1,0.9-1.5,1.2c-0.7,0.5-1.7,0.6-2.5,0.4c-1-0.4-1.9-1.3-2.3-2.3l-3.3-5.7l-1.6,1l-0.8-1.5l1.6-0.9l-1.5-2.5L432.8,754.8z"
   id="path958" />
<path
   class="st4"
   d="M452.6,757.5c0.6,1.1,1.2,2,1.8,2.8l-1.7,1l-1.1-1.7l0,0c0,1.6-0.9,3.1-2.3,4c-1.6,1-4.1,1.2-6.3-2.5l-3.6-6.1  l1.9-1.1l3.4,5.8c1.2,2,2.5,3,4.3,2c1.1-0.7,1.7-1.9,1.5-3.2c-0.1-0.4-0.2-0.7-0.4-1.1l-3.8-6.5l1.9-1.1L452.6,757.5z"
   id="path960" />
<path
   class="st4"
   d="M457.5,738l7.4,12.6c0.5,0.9,1.2,2,1.7,2.7l-1.7,1l-1.1-1.8l0,0c0.1,1.7-0.9,3.3-2.4,4.1  c-2.5,1.5-5.7,0.5-7.6-2.7c-2-3.5-1.1-6.9,1.4-8.3c1.2-0.8,2.8-0.9,4.1-0.2l0,0l-3.6-6.2L457.5,738z M460.9,748.2  c-0.2-0.3-0.3-0.5-0.5-0.8c-1-1.1-2.7-1.4-4-0.6c-2,1.2-2.1,3.6-0.8,5.9c1.2,2.1,3.3,3.3,5.3,2.1c1.3-0.8,1.9-2.4,1.5-3.9  c-0.1-0.3-0.2-0.6-0.4-0.9L460.9,748.2z"
   id="path962" />
<path
   class="st4"
   d="M463.9,736.8c0.4,0.6,0.2,1.5-0.5,1.9c-0.6,0.4-1.5,0.2-1.9-0.5c-0.4-0.6-0.2-1.5,0.4-1.8c0,0,0,0,0.1,0  c0.6-0.4,1.4-0.2,1.8,0.4C463.8,736.8,463.9,736.8,463.9,736.8z M469.6,751.5l-6.1-10.5l1.9-1.1l6.1,10.5L469.6,751.5z"
   id="path964" />
<path
   class="st4"
   d="M481,737.7c2.2,3.9,0.6,7.1-2,8.6c-2.8,1.7-6.2,0.8-8.1-2.5c-2-3.5-1-6.9,2-8.6S479.1,734.5,481,737.7z   M472.8,742.6c1.3,2.3,3.7,3.2,5.5,2.2s2.2-3.5,0.8-5.9c-1-1.8-3.2-3.5-5.5-2.2S471.6,740.6,472.8,742.6L472.8,742.6z"
   id="path966" />
<path
   class="st4"
   d="M484.9,741c-0.5-0.7-0.3-1.6,0.4-2.1c0,0,0.1,0,0.1-0.1c0.7-0.5,1.7-0.3,2.2,0.5c0.5,0.7,0.3,1.7-0.5,2.2  C486.3,742.1,485.4,741.8,484.9,741C484.9,741.1,484.9,741.1,484.9,741z"
   id="path968" />
<path
   class="st4"
   d="M497.6,734.6c-0.7,1-1.6,1.8-2.6,2.4c-3.1,1.8-6.5,0.9-8.3-2.3c-1.8-2.9-1-6.7,1.8-8.5c0.2-0.1,0.4-0.2,0.6-0.3  c0.9-0.5,1.9-0.9,3-1l0.4,1.7c-0.9,0-1.7,0.3-2.5,0.8c-2.4,1.4-2.7,3.9-1.4,6.1c1.4,2.4,3.8,3,5.9,1.8c0.8-0.5,1.5-1.1,2-1.9  L497.6,734.6z"
   id="path970" />
<path
   class="st4"
   d="M506.3,722.9c2.3,3.9,0.6,7.1-2,8.6c-2.8,1.7-6.2,0.8-8.1-2.5c-2-3.5-0.9-6.9,2-8.6S504.5,719.7,506.3,722.9z   M498.1,727.9c1.3,2.3,3.7,3.2,5.5,2.2s2.2-3.6,0.8-5.9c-1-1.8-3.2-3.5-5.5-2.2S497,725.9,498.1,727.9z"
   id="path972" />
<path
   class="st4"
   d="M507.4,719.2c-0.6-1.1-1.2-2-1.7-2.8l1.7-1l1.1,1.6h0.1c-0.1-1.6,0.8-3.1,2.2-3.8c1.3-0.8,3-0.6,4.2,0.4l0,0  c0-0.7,0.1-1.4,0.4-2c0.4-0.9,1-1.6,1.9-2.1c1.4-0.8,4-1.1,6.1,2.5l3.6,6.2l-1.8,1.1l-3.5-5.9c-1.2-2-2.6-2.8-4.1-1.9  c-1,0.6-1.5,1.8-1.2,3c0.1,0.4,0.2,0.7,0.4,1l3.8,6.5l-1.9,1.1l-3.6-6.3c-1-1.7-2.4-2.4-3.9-1.6c-1.1,0.7-1.6,2-1.2,3.3  c0.1,0.4,0.2,0.7,0.4,1l3.7,6.3l-1.9,1.1L507.4,719.2z"
   id="path974" />
<g
   class="st5"
   id="g992">
	
	
	
	
	
	
	
	
</g>


<path
   class="st7"
   d="M374.9,305.7c15-4.4,24.7-14.6,24.7-30.8c0-20.9-17.5-29.5-36.3-29.5c-9.7,0-19.6,2.3-29.3,2.3  c-5.9-0.1-11.8-0.8-17.5-2.3v10.1l15.6,1.9v91.5h-15.6v10.7H362v-10.7h-18.1v-41.3h18.5l34.6,51.9h20.9v-10.7h-13.7L374.9,305.7z"
   id="path998" />


<path
   style="fill:none;stroke:#000000;stroke-width:60.36959457;stroke-linecap:round;stroke-linejoin:miter;stroke-miterlimit:4;stroke-dasharray:none;stroke-opacity:1"
   d="M 298.49544,385.81794 C 195.04359,509.07682 193.01512,511.09743 193.01512,511.09743"
   id="path4531"
   inkscape:connector-curvature="0" /><ellipse
   style="fill:#ffffff;fill-opacity:1;stroke:#f39637;stroke-width:38.073;stroke-miterlimit:4;stroke-dasharray:none;stroke-opacity:1"
   id="path4526"
   cx="370.10107"
   cy="297.43802"
   rx="132.01361"
   ry="125.46587" /><flowRoot
   xml:space="preserve"
   id="flowRoot4534"
   style="font-style:normal;font-variant:normal;font-weight:normal;font-stretch:normal;font-size:40px;line-height:1.25;font-family:'Lucida Console';-inkscape-font-specification:'Lucida Console';letter-spacing:0px;word-spacing:0px;fill:#000000;fill-opacity:1;stroke:none"
   transform="matrix(2.3955144,0,0,2.3843963,-581.80271,-898.98352)"><flowRegion
     id="flowRegion4536"
     style="font-style:normal;font-variant:normal;font-weight:normal;font-stretch:normal;font-family:'Lucida Console';-inkscape-font-specification:'Lucida Console'"><rect
       id="rect4538"
       width="178.57143"
       height="93.571426"
       x="336.42856"
       y="597.51971"
       style="font-style:normal;font-variant:normal;font-weight:normal;font-stretch:normal;font-family:'Lucida Console';-inkscape-font-specification:'Lucida Console'" /></flowRegion><flowPara
     id="flowPara4540"
     style="font-weight:bold;font-size:64px;fill:#ffffff;fill-opacity:1">jfa</flowPara></flowRoot><path
   inkscape:connector-curvature="0"
   style="opacity:1;fill:url(#linearGradient1076);fill-opacity:1;stroke-width:0.4294484"
   d="m 483.89864,297.62274 c 0,58.79699 -50.82885,106.46003 -113.53124,106.46003 -62.70238,0 -113.53122,-47.66304 -113.53122,-106.46003 0,-58.797 50.82884,-106.46002 113.53122,-106.46002 62.70239,0 113.53124,47.66302 113.53124,106.46002 z m 0,0"
   id="path948-0" /><path
   style="fill:#ffffff;fill-opacity:1;stroke-width:0.2858353"
   inkscape:connector-curvature="0"
   d="m 434.91724,335.23264 c -5.92233,-11.5237 -10.08841,-27.36026 -14.11741,-42.6763 -3.92497,-14.91878 -7.98457,-30.34586 -13.74291,-41.88178 -3.29223,-6.59662 -6.91123,-11.51658 -11.06139,-15.04102 -5.17822,-4.39638 -11.21194,-6.62615 -17.93347,-6.62615 -6.68848,0 -12.68058,2.20736 -17.80862,6.56197 -4.111,3.49084 -7.68105,8.36394 -10.91453,14.89637 -5.64819,11.41471 -9.4165,26.03096 -13.40512,41.50694 -3.97637,15.43114 -8.0886,31.38688 -14.07458,43.02772 -4.94935,9.62703 -9.944,13.90322 -14.29243,15.751 v -121.744 h -12.53249 v 133.51319 h 160.41593 v -10.43072 c -5.09623,0 -12.76871,-1.74694 -20.53298,-16.85722 z m -86.72878,-41.07299 c 3.86624,-15.00332 7.5195,-29.17443 12.73933,-39.72127 6.65423,-13.44484 12.96575,-15.00027 17.13427,-15.00027 4.21259,0 10.60367,1.57989 17.42189,15.23862 5.32875,10.67519 9.26597,25.6398 13.07345,40.11141 4.15383,15.78869 8.44964,32.11521 14.83705,44.54549 2.65826,5.17359 5.52213,9.38357 8.68096,12.75623 H 324.47464 c 3.25551,-3.42563 6.19404,-7.71098 8.90736,-12.98645 6.46208,-12.56779 10.70403,-29.02673 14.80646,-44.94376 z m 0,0"
   id="path2" /></svg>